%FSLAX43Y43*%
%MOMM*%
G71*
G01*
G75*
G04 Layer_Physical_Order=2*
%ADD10C,0.300*%
%ADD11R,1.600X1.800*%
%ADD12R,3.500X0.600*%
%ADD13R,1.600X0.300*%
%ADD14R,1.800X1.600*%
%ADD15R,4.000X3.000*%
%ADD16R,2.300X2.300*%
%ADD17R,0.900X0.950*%
%ADD18R,0.900X0.950*%
%ADD19R,0.850X1.300*%
%ADD20R,0.600X2.200*%
%ADD21R,0.600X2.200*%
%ADD22R,1.600X1.000*%
%ADD23R,5.400X5.500*%
%ADD24C,1.500*%
%ADD25C,0.800*%
%ADD26C,0.400*%
%ADD27C,0.600*%
%ADD28C,0.500*%
%ADD29C,1.000*%
%ADD30C,0.250*%
%ADD31R,1.500X1.500*%
%ADD32C,1.500*%
%ADD33C,2.000*%
%ADD34R,2.000X2.000*%
%ADD35C,1.100*%
%ADD36R,4.200X0.600*%
D10*
X44050Y43050D02*
G03*
X43400Y43987I-1000J0D01*
G01*
Y42113D02*
G03*
X44050Y43050I-350J937D01*
G01*
X43394Y35875D02*
G03*
X44359Y37052I-235J1177D01*
G01*
X40900Y40100D02*
G03*
X40227Y41045I-1000J0D01*
G01*
X44359Y37052D02*
G03*
X41983Y37287I-1200J0D01*
G01*
X39225Y39362D02*
G03*
X40900Y40100I675J738D01*
G01*
X41060Y38209D02*
G03*
X40600Y38400I-460J-459D01*
G01*
X41060Y38210D02*
G03*
X40600Y38400I-460J-460D01*
G01*
X44359Y34512D02*
G03*
X43671Y35597I-1200J0D01*
G01*
X44009Y28941D02*
G03*
X43760Y29542I-850J0D01*
G01*
X44009Y28941D02*
G03*
X43760Y29542I-850J0D01*
G01*
X42100Y33949D02*
G03*
X44359Y34512I1059J564D01*
G01*
Y31972D02*
G03*
X42100Y32536I-1200J0D01*
G01*
Y31409D02*
G03*
X44359Y31972I1059J564D01*
G01*
X38233Y32947D02*
G03*
X40093Y32750I967J253D01*
G01*
X40400Y30850D02*
G03*
X40649Y30249I850J0D01*
G01*
X40400Y30850D02*
G03*
X40649Y30249I850J0D01*
G01*
X38706Y46355D02*
G03*
X37210Y46142I-656J-755D01*
G01*
X37623Y42075D02*
G03*
X38300Y42614I-223J975D01*
G01*
X37532Y39800D02*
G03*
X39225Y39362I968J250D01*
G01*
X37210Y46142D02*
G03*
X36200Y46267I-610J-792D01*
G01*
X35136Y41045D02*
G03*
X36700Y39800I764J-645D01*
G01*
X30985Y44935D02*
G03*
X30561Y44759I0J-600D01*
G01*
X30985Y44935D02*
G03*
X30561Y44759I0J-600D01*
G01*
X30526Y44724D02*
G03*
X30350Y44300I424J-424D01*
G01*
X30526Y44724D02*
G03*
X30350Y44300I424J-424D01*
G01*
Y43987D02*
G03*
X29729Y42812I350J-937D01*
G01*
X32836Y39416D02*
G03*
X32016Y40236I-986J-166D01*
G01*
X30436Y40950D02*
G03*
X30800Y41250I-436J900D01*
G01*
X31748Y40505D02*
G03*
X31000Y40950I-748J-405D01*
G01*
X35110Y38400D02*
G03*
X33376Y37976I-760J-650D01*
G01*
X33250Y38650D02*
G03*
X33001Y39251I-850J0D01*
G01*
X33250Y38650D02*
G03*
X33000Y39252I-850J0D01*
G01*
X31550Y37750D02*
G03*
X31799Y37149I850J0D01*
G01*
X31550Y37750D02*
G03*
X31799Y37149I850J0D01*
G01*
X33149Y35799D02*
G03*
X33750Y35550I601J601D01*
G01*
X33149Y35799D02*
G03*
X33750Y35550I601J601D01*
G01*
X30895Y38953D02*
G03*
X31550Y38296I955J297D01*
G01*
X33800Y33150D02*
G03*
X32659Y34140I-1000J0D01*
G01*
X32011Y32536D02*
G03*
X33800Y33150I789J614D01*
G01*
X41600Y27240D02*
G03*
X41950Y28000I-650J760D01*
G01*
G03*
X40300Y27240I-1000J0D01*
G01*
X44341Y7228D02*
G03*
X44341Y7228I-1200J0D01*
G01*
Y4688D02*
G03*
X44341Y4688I-1200J0D01*
G01*
Y2148D02*
G03*
X44341Y2148I-1200J0D01*
G01*
X41410Y25840D02*
G03*
X41600Y26300I-460J460D01*
G01*
X41409Y25840D02*
G03*
X41600Y26300I-459J460D01*
G01*
X39300Y24000D02*
G03*
X39760Y24191I0J650D01*
G01*
X39300Y24000D02*
G03*
X39760Y24190I0J650D01*
G01*
X33110Y25300D02*
G03*
X33110Y24000I-760J-650D01*
G01*
X40850Y9465D02*
G03*
X41300Y10300I-550J835D01*
G01*
G03*
X39650Y9540I-1000J0D01*
G01*
X41250Y7150D02*
G03*
X40850Y7950I-1000J0D01*
G01*
X39650D02*
G03*
X41250Y7150I600J-800D01*
G01*
X38658Y8400D02*
G03*
X38658Y8400I-1200J0D01*
G01*
X33658Y8400D02*
G03*
X33658Y8400I-1200J0D01*
G01*
X29729Y42812D02*
G03*
X29564Y40950I271J-962D01*
G01*
X28877D02*
G03*
X27750Y39300I-527J-850D01*
G01*
X29900Y28900D02*
G03*
X29050Y29889I-1000J0D01*
G01*
X29100Y27920D02*
G03*
X29900Y28900I-200J980D01*
G01*
X27750Y29400D02*
G03*
X27800Y29150I650J0D01*
G01*
X27750Y29400D02*
G03*
X27800Y29150I650J0D01*
G01*
X22222Y35772D02*
G03*
X21550Y36050I-672J-672D01*
G01*
X22222Y35772D02*
G03*
X21550Y36050I-672J-672D01*
G01*
X20812D02*
G03*
X20712Y34123I-312J-950D01*
G01*
G03*
X20200Y33225I488J-873D01*
G01*
X24500Y33100D02*
G03*
X24222Y33772I-950J0D01*
G01*
X24500Y33100D02*
G03*
X24222Y33772I-950J0D01*
G01*
X20200Y33225D02*
G03*
X20478Y32528I950J-25D01*
G01*
X20200Y33225D02*
G03*
X20478Y32528I950J-25D01*
G01*
X20557Y32450D02*
G03*
X19850Y30736I-7J-1000D01*
G01*
X5199Y37501D02*
G03*
X5199Y37501I-1450J0D01*
G01*
X19350Y31400D02*
G03*
X17823Y32250I-1000J0D01*
G01*
X13650D02*
G03*
X13049Y32001I0J-850D01*
G01*
X13650Y32250D02*
G03*
X13049Y32001I0J-850D01*
G01*
X17823Y30550D02*
G03*
X19350Y31400I527J850D01*
G01*
X12219Y31171D02*
G03*
X13421Y29969I229J-974D01*
G01*
X5199Y32501D02*
G03*
X5199Y32501I-1450J0D01*
G01*
X28910Y25890D02*
G03*
X29100Y26350I-460J460D01*
G01*
X28909Y25890D02*
G03*
X29100Y26350I-459J460D01*
G01*
X26644Y25463D02*
G03*
X26453Y25003I459J-460D01*
G01*
X26644Y25463D02*
G03*
X26453Y25003I460J-460D01*
G01*
X5199Y22501D02*
G03*
X5199Y22501I-1450J0D01*
G01*
X5199Y17501D02*
G03*
X5199Y17501I-1450J0D01*
G01*
X43035Y43065D02*
X43050Y43050D01*
X40850Y43065D02*
X43035D01*
X39850D02*
X40850D01*
X33650Y45605D02*
X34650D01*
X32855D02*
X33650D01*
X32800Y44400D02*
X32865Y44335D01*
X33650D02*
X34650D01*
X32865D02*
X33650D01*
X30985D02*
X32865D01*
X30700Y43050D02*
X30950Y43300D01*
X38050Y45600D02*
X38200D01*
X35900Y40400D02*
X38450D01*
X32064Y33886D02*
X32800Y33150D01*
X31259Y33886D02*
X32064D01*
X39900Y40100D02*
Y40400D01*
X33650Y41850D02*
X34550D01*
X30000D02*
X33650D01*
X36600Y45350D02*
X37557Y44393D01*
X37400Y43065D02*
X37485D01*
X34650D02*
X37400D01*
X40250Y10250D02*
X40300Y10300D01*
X40250Y7150D02*
Y10250D01*
X43400Y46300D02*
X44600D01*
X43400Y46200D02*
X44600D01*
X43400Y46100D02*
X44600D01*
X43400Y46000D02*
X44600D01*
X43400Y45900D02*
X44600D01*
X43400Y45800D02*
X44600D01*
X43400Y45700D02*
X44600D01*
X43400Y45600D02*
X44600D01*
X43400Y45500D02*
X44600D01*
X43400Y45400D02*
X44600D01*
X43400Y45300D02*
X44600D01*
X43400Y45200D02*
X44600D01*
X43400Y45100D02*
X44600D01*
X43400Y45000D02*
X44600D01*
X43400Y44900D02*
X44600D01*
X43400Y44800D02*
X44600D01*
X43400Y44700D02*
X44600D01*
X43577Y43900D02*
X44600D01*
X43712Y43800D02*
X44600D01*
X43810Y43700D02*
X44600D01*
X43885Y43600D02*
X44600D01*
X43943Y43500D02*
X44600D01*
X43400Y44600D02*
X44600D01*
X43400Y44500D02*
X44600D01*
X43400Y44400D02*
X44600D01*
X43400Y44300D02*
X44600D01*
X43400Y44200D02*
X44600D01*
X43400Y44100D02*
X44600D01*
X43400Y44000D02*
X44600D01*
X43650Y43850D02*
Y47450D01*
X43550Y43916D02*
Y47450D01*
X43450Y43967D02*
Y47450D01*
X43400Y45085D02*
Y46355D01*
X44050Y43074D02*
Y47450D01*
X43950Y43486D02*
Y47450D01*
X43850Y43650D02*
Y47450D01*
X43750Y43764D02*
Y47450D01*
X43350Y46355D02*
Y47450D01*
X43250Y46355D02*
Y47450D01*
X43150Y46355D02*
Y47450D01*
X43050Y46355D02*
Y47450D01*
X42950Y46355D02*
Y47450D01*
X43400Y44855D02*
Y45085D01*
X42850Y46355D02*
Y47450D01*
X43987Y43400D02*
X44600D01*
X44018Y43300D02*
X44600D01*
X44039Y43200D02*
X44600D01*
X44049Y43100D02*
X44600D01*
X44049Y43000D02*
X44600D01*
X44039Y42900D02*
X44600D01*
X44018Y42800D02*
X44600D01*
X43987Y42700D02*
X44600D01*
X43400Y44855D02*
Y45085D01*
Y43987D02*
Y44855D01*
X43943Y42600D02*
X44600D01*
X43885Y42500D02*
X44600D01*
X43810Y42400D02*
X44600D01*
X43711Y42300D02*
X44600D01*
X43577Y42200D02*
X44600D01*
X43400Y42100D02*
X44600D01*
X43400Y42000D02*
X44600D01*
X43400Y41900D02*
X44600D01*
X43400Y41800D02*
X44600D01*
X43510Y38200D02*
X44600D01*
X43745Y38100D02*
X44600D01*
X43400Y41700D02*
X44600D01*
X43400Y41600D02*
X44600D01*
X43400Y41500D02*
X44600D01*
X43400Y41400D02*
X44600D01*
X43400Y41300D02*
X44600D01*
X43400Y41200D02*
X44600D01*
X43400Y41100D02*
X44600D01*
X44308Y37400D02*
X44600D01*
X44334Y37300D02*
X44600D01*
X44350Y37200D02*
X44600D01*
X44358Y37100D02*
X44600D01*
X44358Y37000D02*
X44600D01*
X44350Y36900D02*
X44600D01*
X44333Y36800D02*
X44600D01*
X43896Y38000D02*
X44600D01*
X44009Y37900D02*
X44600D01*
X44098Y37800D02*
X44600D01*
X44170Y37700D02*
X44600D01*
X44227Y37600D02*
X44600D01*
X44273Y37500D02*
X44600D01*
X44307Y36700D02*
X44600D01*
X44050Y37857D02*
Y43026D01*
X43950Y37955D02*
Y42614D01*
X43850Y38034D02*
Y42450D01*
X43750Y38097D02*
Y42336D01*
X44350Y37204D02*
Y47450D01*
X44250Y37553D02*
Y47450D01*
X44150Y37730D02*
Y47450D01*
X43400Y41045D02*
Y42113D01*
X43350Y38237D02*
Y41045D01*
X43250Y38249D02*
Y41045D01*
X43650Y38147D02*
Y42250D01*
X43550Y38187D02*
Y42184D01*
X43450Y38217D02*
Y42133D01*
X44271Y36600D02*
X44600D01*
X44225Y36500D02*
X44600D01*
X44167Y36400D02*
X44600D01*
X44094Y36300D02*
X44600D01*
X44350Y34664D02*
Y36900D01*
X44250Y35013D02*
Y36551D01*
X44150Y35190D02*
Y36375D01*
X43150Y38252D02*
Y41045D01*
X43050Y38247D02*
Y41045D01*
X42950Y38234D02*
Y41045D01*
X44004Y36200D02*
X44600D01*
X42750Y46355D02*
Y47450D01*
X42650Y46355D02*
Y47450D01*
X42550Y46355D02*
Y47450D01*
X42450Y46355D02*
Y47450D01*
X42350Y46355D02*
Y47450D01*
X42250Y46355D02*
Y47450D01*
X42150Y46355D02*
Y47450D01*
X42050Y46355D02*
Y47450D01*
X38068Y46600D02*
X44600D01*
X38486Y46500D02*
X44600D01*
X38650Y46400D02*
X44600D01*
X38706Y46355D02*
X43400D01*
X40336Y41000D02*
X44600D01*
X40227Y41045D02*
X43400D01*
X40817Y40500D02*
X44600D01*
X40854Y40400D02*
X44600D01*
X40880Y40300D02*
X44600D01*
X40895Y40200D02*
X44600D01*
X40900Y40100D02*
X44600D01*
X40895Y40000D02*
X44600D01*
X40880Y39900D02*
X44600D01*
X40500Y40900D02*
X44600D01*
X40614Y40800D02*
X44600D01*
X40700Y40700D02*
X44600D01*
X40766Y40600D02*
X44600D01*
X40854Y39800D02*
X44600D01*
X40816Y39700D02*
X44600D01*
X40766Y39600D02*
X44600D01*
X41950Y46355D02*
Y47450D01*
X41850Y46355D02*
Y47450D01*
X41750Y46355D02*
Y47450D01*
X41650Y46355D02*
Y47450D01*
X41550Y46355D02*
Y47450D01*
X41450Y46355D02*
Y47450D01*
X41350Y46355D02*
Y47450D01*
X41250Y46355D02*
Y47450D01*
X41150Y46355D02*
Y47450D01*
X41050Y46355D02*
Y47450D01*
X40950Y46355D02*
Y47450D01*
X40850Y46355D02*
Y47450D01*
X40750Y46355D02*
Y47450D01*
X40650Y46355D02*
Y47450D01*
X40550Y46355D02*
Y47450D01*
X40450Y46355D02*
Y47450D01*
X40550Y40860D02*
Y41045D01*
X40850Y40413D02*
Y41045D01*
X40750Y40627D02*
Y41045D01*
X40650Y40762D02*
Y41045D01*
X40350Y46355D02*
Y47450D01*
X40250Y46355D02*
Y47450D01*
X40150Y46355D02*
Y47450D01*
X40050Y46355D02*
Y47450D01*
X40450Y40935D02*
Y41045D01*
X42850Y38212D02*
Y41045D01*
X42750Y38180D02*
Y41045D01*
X42650Y38139D02*
Y41045D01*
X42550Y38086D02*
Y41045D01*
X42450Y38020D02*
Y41045D01*
X42350Y37938D02*
Y41045D01*
X42250Y37835D02*
Y41045D01*
X42150Y37701D02*
Y41045D01*
X40700Y39500D02*
X44600D01*
X40614Y39400D02*
X44600D01*
X40500Y39300D02*
X44600D01*
X40336Y39200D02*
X44600D01*
X38812Y39100D02*
X44600D01*
X33175Y39000D02*
X44600D01*
X33212Y38900D02*
X44600D01*
X41169Y38100D02*
X42574D01*
X41269Y38000D02*
X42423D01*
X41369Y37900D02*
X42310D01*
X41469Y37800D02*
X42221D01*
X41569Y37700D02*
X42149D01*
X41669Y37600D02*
X42092D01*
X33237Y38800D02*
X44600D01*
X34663Y38700D02*
X44600D01*
X34877Y38600D02*
X44600D01*
X35012Y38500D02*
X44600D01*
X40613Y38400D02*
X44600D01*
X40947Y38300D02*
X44600D01*
X41069Y38200D02*
X42809D01*
X42050Y37509D02*
Y41045D01*
X41650Y37620D02*
Y41045D01*
X41550Y37720D02*
Y41045D01*
X41450Y37820D02*
Y41045D01*
X41950Y37320D02*
Y41045D01*
X41850Y37420D02*
Y41045D01*
X41750Y37520D02*
Y41045D01*
X41050Y38219D02*
Y41045D01*
X40950Y38298D02*
Y41045D01*
X40850Y38350D02*
Y39787D01*
X41350Y37920D02*
Y41045D01*
X41250Y38020D02*
Y41045D01*
X41150Y38120D02*
Y41045D01*
X40750Y38383D02*
Y39573D01*
X40650Y38398D02*
Y39438D01*
X41769Y37500D02*
X42046D01*
X41869Y37400D02*
X42011D01*
X41060Y38209D02*
X41983Y37287D01*
X40550Y38400D02*
Y39340D01*
X40450Y38400D02*
Y39265D01*
X40350Y38400D02*
Y39207D01*
X40250Y38400D02*
Y39163D01*
X40150Y38400D02*
Y39132D01*
X35110Y38400D02*
X40600D01*
X40050D02*
Y39111D01*
X44065Y35300D02*
X44600D01*
X44143Y35200D02*
X44600D01*
X44206Y35100D02*
X44600D01*
X44256Y35000D02*
X44600D01*
X44295Y34900D02*
X44600D01*
X44324Y34800D02*
X44600D01*
X44345Y34700D02*
X44600D01*
X44356Y34600D02*
X44600D01*
X43890Y36100D02*
X44600D01*
X43736Y36000D02*
X44600D01*
X43494Y35900D02*
X44600D01*
X43469Y35800D02*
X44600D01*
X43569Y35700D02*
X44600D01*
X43841Y35500D02*
X44600D01*
X43967Y35400D02*
X44600D01*
X44359Y34500D02*
X44600D01*
X44354Y34400D02*
X44600D01*
X44340Y34300D02*
X44600D01*
X44318Y34200D02*
X44600D01*
X44286Y34100D02*
X44600D01*
X44245Y34000D02*
X44600D01*
X44191Y33900D02*
X44600D01*
X44125Y33800D02*
X44600D01*
X44043Y33700D02*
X44600D01*
X43939Y33600D02*
X44600D01*
X43804Y33500D02*
X44600D01*
X43610Y33400D02*
X44600D01*
X43570Y33100D02*
X44600D01*
X43779Y33000D02*
X44600D01*
X44050Y35317D02*
Y36248D01*
X43950Y35415D02*
Y36149D01*
X43850Y35494D02*
Y36071D01*
X43950Y32875D02*
Y33609D01*
X44350Y32124D02*
Y34360D01*
X44250Y32473D02*
Y34011D01*
X44150Y32650D02*
Y33834D01*
X44050Y32777D02*
Y33708D01*
X43750Y35557D02*
Y36007D01*
X43650Y35620D02*
Y35957D01*
X43394Y35875D02*
X43659Y35610D01*
X43550Y35720D02*
Y35917D01*
X43850Y32954D02*
Y33531D01*
X43750Y33017D02*
Y33467D01*
X44114Y32700D02*
X44600D01*
X44182Y32600D02*
X44600D01*
X44237Y32500D02*
X44600D01*
X44281Y32400D02*
X44600D01*
X44314Y32300D02*
X44600D01*
X44338Y32200D02*
X44600D01*
X44353Y32100D02*
X44600D01*
X43650Y33067D02*
Y33417D01*
X43550Y33107D02*
Y33377D01*
X43350Y33157D02*
Y33327D01*
X43250Y33169D02*
Y33316D01*
X43921Y32900D02*
X44600D01*
X44028Y32800D02*
X44600D01*
X43450Y33137D02*
Y33348D01*
X44359Y32000D02*
X44600D01*
X44357Y31900D02*
X44600D01*
X44347Y31800D02*
X44600D01*
X44328Y31700D02*
X44600D01*
X44300Y31600D02*
X44600D01*
X44263Y31500D02*
X44600D01*
X44214Y31400D02*
X44600D01*
X44153Y31300D02*
X44600D01*
X44078Y31200D02*
X44600D01*
X43983Y31100D02*
X44600D01*
X43863Y31000D02*
X44600D01*
X43698Y30900D02*
X44600D01*
X43416Y30800D02*
X44600D01*
X43302Y30000D02*
X44600D01*
X43402Y29900D02*
X44600D01*
X43994Y29100D02*
X44600D01*
X44007Y29000D02*
X44600D01*
X44009Y28900D02*
X44600D01*
X44009Y28800D02*
X44600D01*
X44009Y28700D02*
X44600D01*
X44009Y28600D02*
X44600D01*
X44009Y28500D02*
X44600D01*
X43502Y29800D02*
X44600D01*
X43602Y29700D02*
X44600D01*
X43702Y29600D02*
X44600D01*
X43799Y29500D02*
X44600D01*
X43875Y29400D02*
X44600D01*
X43930Y29300D02*
X44600D01*
X43969Y29200D02*
X44600D01*
X44350Y28092D02*
Y31820D01*
X43950Y29253D02*
Y31069D01*
X43850Y29437D02*
Y30991D01*
X43750Y29552D02*
Y30927D01*
X44250Y28092D02*
Y31471D01*
X44150Y28092D02*
Y31295D01*
X44050Y28092D02*
Y31168D01*
X43550Y29752D02*
Y30837D01*
X43450Y29852D02*
Y30808D01*
X43350Y29952D02*
Y30787D01*
X43250Y30052D02*
Y30776D01*
X43650Y29652D02*
Y30877D01*
X44359Y28000D02*
X44600D01*
X44359Y27900D02*
X44600D01*
X44359Y27800D02*
X44600D01*
X44359Y27700D02*
X44600D01*
X44359Y27600D02*
X44600D01*
X44359Y27500D02*
X44600D01*
X44359Y27400D02*
X44600D01*
X44009Y28400D02*
X44600D01*
X44009Y28300D02*
X44600D01*
X44009Y28092D02*
Y28941D01*
Y28200D02*
X44600D01*
X44009Y28100D02*
X44600D01*
X44359Y27300D02*
X44600D01*
X44009Y28092D02*
X44359D01*
X43150Y33172D02*
Y33312D01*
X43050Y33167D02*
Y33317D01*
X42950Y33154D02*
Y33331D01*
X42850Y33132D02*
Y33353D01*
X42750Y33100D02*
Y33384D01*
X42650Y33059D02*
Y33426D01*
X42550Y33006D02*
Y33479D01*
X42100Y33300D02*
X44600D01*
X42100Y33200D02*
X44600D01*
X42100Y33500D02*
X42515D01*
X42100Y33400D02*
X42709D01*
X42100Y33100D02*
X42749D01*
X42100Y33000D02*
X42540D01*
X42802Y30500D02*
X44600D01*
X42902Y30400D02*
X44600D01*
X42750Y30552D02*
Y30844D01*
X42850Y30452D02*
Y30813D01*
X43050Y30252D02*
Y30777D01*
X43002Y30300D02*
X44600D01*
X42950Y30352D02*
Y30791D01*
X42502Y30800D02*
X42903D01*
X42550Y30752D02*
Y30939D01*
X42402Y30900D02*
X42621D01*
X42602Y30700D02*
X44600D01*
X42702Y30600D02*
X44600D01*
X42650Y30652D02*
Y30886D01*
X42100Y33600D02*
X42380D01*
X42450Y32940D02*
Y33545D01*
X42100Y33400D02*
Y33949D01*
Y33700D02*
X42276D01*
X42250Y32755D02*
Y33730D01*
X42350Y32858D02*
Y33627D01*
X42150Y32621D02*
Y33864D01*
X42100Y32900D02*
X42398D01*
X42100Y32800D02*
X42291D01*
X42100Y32700D02*
X42205D01*
X40093Y32750D02*
X40400D01*
X42100Y32536D02*
Y33400D01*
X40066Y32700D02*
X40400D01*
X42250Y31052D02*
Y31190D01*
X42202Y31100D02*
X42335D01*
X42100Y31202D02*
Y31409D01*
X42150Y31152D02*
Y31324D01*
X42302Y31000D02*
X42456D01*
X42450Y30852D02*
Y31005D01*
X42350Y30952D02*
Y31087D01*
X40000Y32600D02*
X40400D01*
X39914Y32500D02*
X40400D01*
X39800Y32400D02*
X40400D01*
X39636Y32300D02*
X40400D01*
X33112Y32200D02*
X40400D01*
X42102Y31200D02*
X42241D01*
X40400Y30850D02*
Y32750D01*
X43102Y30200D02*
X44600D01*
X43202Y30100D02*
X44600D01*
X42100Y31202D02*
X43760Y29542D01*
X43150Y30152D02*
Y30772D01*
X41950Y28024D02*
Y28948D01*
X42050Y28092D02*
Y28848D01*
X41750Y28600D02*
Y29148D01*
X41850Y28436D02*
Y29048D01*
X29880Y29100D02*
X41798D01*
X40965Y29000D02*
X41898D01*
X29817Y29300D02*
X41598D01*
X29854Y29200D02*
X41698D01*
X40649Y30249D02*
X42309Y28589D01*
X41550Y28800D02*
X42098D01*
X41386Y28900D02*
X41998D01*
X41904Y28300D02*
X42309D01*
X41930Y28200D02*
X42309D01*
X42250Y28092D02*
Y28648D01*
X42309Y28092D02*
Y28589D01*
X41945Y28100D02*
X42309D01*
X41959Y28092D02*
X42309D01*
X42150D02*
Y28748D01*
X41750Y28600D02*
X42298D01*
X41816Y28500D02*
X42309D01*
X41664Y28700D02*
X42198D01*
X41867Y28400D02*
X42309D01*
X41816Y27500D02*
X41959D01*
X41750Y27400D02*
X41959D01*
X41664Y27300D02*
X41959D01*
X40950Y29000D02*
Y29948D01*
X41050Y28995D02*
Y29848D01*
X40850Y28995D02*
Y30048D01*
X40650Y28954D02*
Y30248D01*
X40750Y28980D02*
Y30148D01*
X40550Y28916D02*
Y30368D01*
X29336Y29800D02*
X41098D01*
X29500Y29700D02*
X41198D01*
X40450Y28866D02*
Y30564D01*
X40350Y28800D02*
Y32750D01*
X40250Y28714D02*
Y32750D01*
X40150Y28600D02*
Y32750D01*
X41250Y28954D02*
Y29648D01*
X41350Y28917D02*
Y29548D01*
X41150Y28980D02*
Y29748D01*
X29895Y29000D02*
X40935D01*
X41550Y28800D02*
Y29348D01*
X41650Y28714D02*
Y29248D01*
X41450Y28866D02*
Y29448D01*
X29700Y29500D02*
X41398D01*
X29766Y29400D02*
X41498D01*
X29614Y29600D02*
X41298D01*
X29900Y28900D02*
X40514D01*
X29895Y28800D02*
X40350D01*
X29880Y28700D02*
X40236D01*
X29854Y28600D02*
X40150D01*
X39950Y46355D02*
Y47450D01*
X39850Y46355D02*
Y47450D01*
X39750Y46355D02*
Y47450D01*
X39650Y46355D02*
Y47450D01*
X39550Y46355D02*
Y47450D01*
X39450Y46355D02*
Y47450D01*
X39350Y46355D02*
Y47450D01*
X39250Y46355D02*
Y47450D01*
X39150Y46355D02*
Y47450D01*
X39050Y46355D02*
Y47450D01*
X38650Y46400D02*
Y47450D01*
X38550Y46466D02*
Y47450D01*
X38950Y46355D02*
Y47450D01*
X38850Y46355D02*
Y47450D01*
X38750Y46355D02*
Y47450D01*
X38350Y46554D02*
Y47450D01*
X38250Y46580D02*
Y47450D01*
X38150Y46595D02*
Y47450D01*
X38050Y46600D02*
Y47450D01*
X38450Y46517D02*
Y47450D01*
X37950Y46595D02*
Y47450D01*
X37850Y46580D02*
Y47450D01*
X37750Y46554D02*
Y47450D01*
X37650Y46516D02*
Y47450D01*
X37550Y46466D02*
Y47450D01*
X37450Y46400D02*
Y47450D01*
X37350Y46314D02*
Y47450D01*
X36913Y46300D02*
X37336D01*
X36850Y46318D02*
Y47450D01*
X36750Y46339D02*
Y47450D01*
X36650Y46349D02*
Y47450D01*
X36550Y46349D02*
Y47450D01*
X36450Y46339D02*
Y47450D01*
X36350Y46318D02*
Y47450D01*
X36150Y46355D02*
Y47450D01*
X36050Y46355D02*
Y47450D01*
X35950Y46355D02*
Y47450D01*
X35850Y46355D02*
Y47450D01*
X35750Y46355D02*
Y47450D01*
X35650Y46355D02*
Y47450D01*
X35550Y46355D02*
Y47450D01*
X35450Y46355D02*
Y47450D01*
X35350Y46355D02*
Y47450D01*
X35250Y46355D02*
Y47450D01*
X35150Y46355D02*
Y47450D01*
X35050Y46355D02*
Y47450D01*
X34950Y46355D02*
Y47450D01*
X34850Y46355D02*
Y47450D01*
X34750Y46355D02*
Y47450D01*
X34650Y46355D02*
Y47450D01*
X34550Y46355D02*
Y47450D01*
X34450Y46355D02*
Y47450D01*
X34350Y46355D02*
Y47450D01*
X34250Y46355D02*
Y47450D01*
X34150Y46355D02*
Y47450D01*
X34050Y46355D02*
Y47450D01*
X33950Y46355D02*
Y47450D01*
X33850Y46355D02*
Y47450D01*
X38300Y42315D02*
Y42545D01*
X38160Y42400D02*
X38300D01*
Y42315D02*
Y42545D01*
X38061Y42300D02*
X38300D01*
X38250Y41600D02*
Y42523D01*
X38300Y41600D02*
Y42315D01*
X38150Y41600D02*
Y42388D01*
X38050Y41649D02*
Y42290D01*
X37927Y42200D02*
X38300D01*
X37250Y46200D02*
Y47450D01*
X37712Y42100D02*
X38300D01*
X37950Y41749D02*
Y42215D01*
X37850Y41849D02*
Y42157D01*
X37699Y42000D02*
X38300D01*
X37799Y41900D02*
X38300D01*
X37750Y41949D02*
Y42113D01*
X37899Y41800D02*
X38300D01*
X37999Y41700D02*
X38300D01*
X38099Y41600D02*
X38300D01*
X37623Y42075D02*
X38099Y41600D01*
X36700Y39800D02*
X37532D01*
X36700Y39800D02*
X37532D01*
X36614Y39700D02*
X37563D01*
X37450Y38400D02*
Y39800D01*
X37550Y38400D02*
Y39739D01*
X37350Y38400D02*
Y39800D01*
X37150Y46185D02*
Y47450D01*
X37050Y46243D02*
Y47450D01*
X36950Y46287D02*
Y47450D01*
X36250Y46287D02*
Y47450D01*
X37127Y46200D02*
X37250D01*
X35050Y40926D02*
Y41045D01*
X34950Y40711D02*
Y41045D01*
X34550Y38730D02*
Y41045D01*
X34450Y38745D02*
Y41045D01*
X34850Y38616D02*
Y41045D01*
X34750Y38667D02*
Y41045D01*
X34650Y38704D02*
Y41045D01*
X37250Y38400D02*
Y39800D01*
X37150Y38400D02*
Y39800D01*
X37050Y38400D02*
Y39800D01*
X36950Y38400D02*
Y39800D01*
X36850Y38400D02*
Y39800D01*
X36750Y38400D02*
Y39800D01*
X36650Y38400D02*
Y39738D01*
X34350Y38750D02*
Y41045D01*
X34250Y38745D02*
Y41045D01*
X34150Y38730D02*
Y41045D01*
X34050Y38704D02*
Y41045D01*
X34950Y38550D02*
Y40089D01*
X35050Y38464D02*
Y39874D01*
X33950Y38666D02*
Y41045D01*
X33750Y46355D02*
Y47450D01*
X33650Y46355D02*
Y47450D01*
X33550Y46355D02*
Y47450D01*
X33450Y46355D02*
Y47450D01*
X33350Y46355D02*
Y47450D01*
X33250Y46355D02*
Y47450D01*
X33150Y46355D02*
Y47450D01*
X33050Y46355D02*
Y47450D01*
X32950Y46355D02*
Y47450D01*
X32850Y46355D02*
Y47450D01*
X32750Y46355D02*
Y47450D01*
X32650Y46355D02*
Y47450D01*
X32550Y46355D02*
Y47450D01*
X32450Y46355D02*
Y47450D01*
X32350Y46355D02*
Y47450D01*
X32250Y46355D02*
Y47450D01*
X32150Y46355D02*
Y47450D01*
X32050Y46355D02*
Y47450D01*
X31950Y46355D02*
Y47450D01*
X31850Y46355D02*
Y47450D01*
X31750Y46355D02*
Y47450D01*
X31650Y46355D02*
Y47450D01*
X31550Y46355D02*
Y47450D01*
X31450Y46355D02*
Y47450D01*
X31350Y46355D02*
Y47450D01*
X31250Y46355D02*
Y47450D01*
X31150Y46355D02*
Y47450D01*
X31100Y46355D02*
X36200D01*
X31100Y45085D02*
Y46355D01*
X31050Y44935D02*
Y47450D01*
X30950Y44934D02*
Y47450D01*
X30850Y44920D02*
Y47450D01*
X30750Y44887D02*
Y47450D01*
X30650Y44833D02*
Y47450D01*
X30450Y44631D02*
Y47450D01*
X30350Y43987D02*
Y47450D01*
X30250Y43943D02*
Y47450D01*
X30150Y43885D02*
Y47450D01*
X30050Y43810D02*
Y47450D01*
X29950Y43711D02*
Y47450D01*
X29850Y43576D02*
Y47450D01*
X29750Y43361D02*
Y47450D01*
X29650Y42787D02*
Y47450D01*
X31100Y44935D02*
Y45085D01*
Y44935D02*
Y45085D01*
X30985Y44935D02*
X31100D01*
X30800Y41250D02*
X31100D01*
X30350Y43987D02*
Y44300D01*
X29550Y42743D02*
Y47450D01*
X29450Y42685D02*
Y47450D01*
X29350Y42610D02*
Y47450D01*
X29250Y42511D02*
Y47450D01*
X33850Y38616D02*
Y41045D01*
X33750Y38550D02*
Y41045D01*
X33250Y38671D02*
Y41045D01*
X33150Y39050D02*
Y41045D01*
X33650Y38464D02*
Y41045D01*
X33550Y38350D02*
Y41045D01*
X33450Y38185D02*
Y41045D01*
X33350Y38002D02*
Y41045D01*
X31100D02*
X35136D01*
X30527Y41000D02*
X35100D01*
X32750Y39686D02*
Y41045D01*
X32650Y39850D02*
Y41045D01*
X33050Y39198D02*
Y41045D01*
X32950Y39302D02*
Y41045D01*
X32850Y39402D02*
Y41045D01*
X32377Y40100D02*
X34946D01*
X32610Y39900D02*
X35034D01*
X32163Y40200D02*
X34920D01*
X32512Y40000D02*
X34984D01*
X32685Y39800D02*
X35100D01*
X32550Y39964D02*
Y41045D01*
X31288Y40900D02*
X35034D01*
X31482Y40800D02*
X34983D01*
X31602Y40700D02*
X34946D01*
X31687Y40600D02*
X34920D01*
X31752Y40500D02*
X34905D01*
X31852Y40400D02*
X34900D01*
X31952Y40300D02*
X34905D01*
X31100Y41045D02*
Y41250D01*
X31050Y40949D02*
Y41250D01*
X30950Y40950D02*
Y41250D01*
X30850Y40950D02*
Y41250D01*
X32450Y40050D02*
Y41045D01*
X32350Y40116D02*
Y41045D01*
X32250Y40167D02*
Y41045D01*
X30760Y41200D02*
X31100D01*
X30661Y41100D02*
X31100D01*
X30750Y40950D02*
Y41188D01*
X30650Y40950D02*
Y41090D01*
X29350Y40950D02*
Y41090D01*
X29250Y40950D02*
Y41189D01*
X31950Y40302D02*
Y41045D01*
X31850Y40402D02*
Y41045D01*
X31750Y40502D02*
Y41045D01*
X31650Y40648D02*
Y41045D01*
X32150Y40204D02*
Y41045D01*
X32050Y40230D02*
Y41045D01*
X31748Y40505D02*
X32016Y40236D01*
X31450Y40821D02*
Y41045D01*
X31250Y40912D02*
Y41045D01*
X31150Y40937D02*
Y41045D01*
X30436Y40950D02*
X30950D01*
X31550Y40748D02*
Y41045D01*
X31350Y40875D02*
Y41045D01*
X39950Y38400D02*
Y39101D01*
X39850Y38400D02*
Y39101D01*
X39161Y39300D02*
X39300D01*
X39027Y39200D02*
X39464D01*
X39350Y38400D02*
Y39265D01*
X39450Y38400D02*
Y39207D01*
X39250Y38400D02*
Y39340D01*
X39150Y38400D02*
Y39290D01*
X39050Y38400D02*
Y39215D01*
X37950Y38400D02*
Y39215D01*
X36500Y39600D02*
X37607D01*
X36336Y39500D02*
X37665D01*
X37750Y38400D02*
Y39389D01*
X37850Y38400D02*
Y39290D01*
X37650Y38400D02*
Y39524D01*
X39750Y38400D02*
Y39111D01*
X39650Y38400D02*
Y39132D01*
X39550Y38400D02*
Y39163D01*
X38950Y38400D02*
Y39157D01*
X38850Y38400D02*
Y39113D01*
X38750Y38400D02*
Y39082D01*
X38650Y38400D02*
Y39061D01*
X38550Y38400D02*
Y39051D01*
X38450Y38400D02*
Y39051D01*
X33121Y39100D02*
X38188D01*
X38350Y38400D02*
Y39061D01*
X38150Y38400D02*
Y39113D01*
X38250Y38400D02*
Y39082D01*
X38050Y38400D02*
Y39157D01*
X36550Y38400D02*
Y39640D01*
X36450Y38400D02*
Y39565D01*
X36350Y38400D02*
Y39507D01*
X36250Y38400D02*
Y39463D01*
X36150Y38400D02*
Y39432D01*
X36050Y38400D02*
Y39411D01*
X35950Y38400D02*
Y39401D01*
X35850Y38400D02*
Y39401D01*
X35650Y38400D02*
Y39432D01*
X35750Y38400D02*
Y39411D01*
X35450Y38400D02*
Y39507D01*
X35550Y38400D02*
Y39463D01*
X35250Y38400D02*
Y39640D01*
X35350Y38400D02*
Y39565D01*
X35150Y38400D02*
Y39739D01*
X37303Y35550D02*
X37603D01*
X33249Y38700D02*
X34037D01*
X33250Y38600D02*
X33823D01*
X37303Y35500D02*
X37603D01*
X37303Y35400D02*
X37603D01*
X33750Y35550D02*
X34803D01*
X33250Y38500D02*
X33688D01*
X33250Y38400D02*
X33590D01*
X33250Y38300D02*
X33515D01*
X33250Y38200D02*
X33457D01*
X33252Y38100D02*
X33413D01*
X33250Y38102D02*
X33376Y37976D01*
X33250Y38102D02*
Y38650D01*
X37303Y35300D02*
X37603D01*
X37303Y35200D02*
X37603D01*
X37303Y35100D02*
X37603D01*
X37303Y35000D02*
X37603D01*
X37303Y34900D02*
X37603D01*
X37303Y34800D02*
X37603D01*
X37303Y34700D02*
X37603D01*
X37303Y34600D02*
X37603D01*
X37303Y34500D02*
X37603D01*
X37303Y34400D02*
X37603D01*
X37303Y34300D02*
X37603D01*
X37303Y34200D02*
X37603D01*
X37303Y34100D02*
X37603D01*
X37303Y34000D02*
X37603D01*
X37303Y33900D02*
X37603D01*
X37303Y33800D02*
X37603D01*
X37303Y33700D02*
X37603D01*
X37303Y33600D02*
X37603D01*
X37303Y33500D02*
X37603D01*
Y32947D02*
X38233D01*
X40050Y28435D02*
Y32673D01*
X37303Y33400D02*
X37603D01*
X33737Y32800D02*
X38284D01*
X33635Y32600D02*
X38400D01*
X33768Y32900D02*
X38246D01*
X33693Y32700D02*
X38334D01*
X33461Y32400D02*
X38600D01*
X33327Y32300D02*
X38764D01*
X33560Y32500D02*
X38486D01*
X33750Y33463D02*
Y35550D01*
X37603Y32947D02*
Y35550D01*
X37303Y32947D02*
Y35550D01*
X34803Y32947D02*
Y35550D01*
X33450Y33910D02*
Y35605D01*
X33327Y34000D02*
X34803D01*
X33250Y34043D02*
Y35713D01*
X33350Y33985D02*
Y35650D01*
X33650Y33677D02*
Y35556D01*
X33462Y33900D02*
X34803D01*
X33550Y33812D02*
Y35574D01*
X37303Y33300D02*
X37603D01*
X37303Y33200D02*
X37603D01*
X33737Y33500D02*
X34803D01*
X33768Y33400D02*
X34803D01*
X37303Y33100D02*
X37603D01*
X37303Y33000D02*
X37603D01*
X34803Y32947D02*
X37303D01*
X33560Y33800D02*
X34803D01*
X33635Y33700D02*
X34803D01*
X33693Y33600D02*
X34803D01*
X33789Y33300D02*
X34803D01*
X33799Y33200D02*
X34803D01*
X33799Y33100D02*
X34803D01*
X33789Y33000D02*
X34803D01*
X32852Y39400D02*
X37740D01*
X32952Y39300D02*
X37839D01*
X32743Y39700D02*
X35186D01*
X32818Y39500D02*
X35464D01*
X33048Y39200D02*
X37973D01*
X32836Y39416D02*
X33000Y39252D01*
X32787Y39600D02*
X35300D01*
X31799Y37149D02*
X33149Y35799D01*
X31750Y35236D02*
Y37203D01*
X31850Y35236D02*
Y37098D01*
X31650Y35236D02*
Y37350D01*
X32509Y35200D02*
X34803D01*
X32509Y35100D02*
X34803D01*
X32509Y35000D02*
X34803D01*
X32509Y34900D02*
X34803D01*
X32509Y34800D02*
X34803D01*
X32350Y35236D02*
Y36598D01*
X32450Y35236D02*
Y36498D01*
X32150Y35236D02*
Y36798D01*
X32250Y35236D02*
Y36698D01*
X32050Y35236D02*
Y36898D01*
X30009Y35236D02*
X32509D01*
X31950D02*
Y36998D01*
X30598Y39250D02*
X30895Y38953D01*
X30750Y35236D02*
Y39098D01*
X30550Y35236D02*
Y39250D01*
X30650Y35236D02*
Y39198D01*
X30450Y35236D02*
Y39250D01*
X30350Y35236D02*
Y39250D01*
X30250Y35236D02*
Y39250D01*
X30150Y35236D02*
Y39250D01*
X30050Y35236D02*
Y39250D01*
X29650Y35236D02*
Y39250D01*
X29550Y35236D02*
Y39250D01*
X29450Y35236D02*
Y39250D01*
X29350Y35236D02*
Y39250D01*
X29250Y35236D02*
Y39250D01*
X31550Y37750D02*
Y38296D01*
X31550Y35236D02*
Y38296D01*
X31450Y35236D02*
Y38334D01*
X31350Y35236D02*
Y38384D01*
X31150Y35236D02*
Y38536D01*
X31250Y35236D02*
Y38450D01*
X31050Y35236D02*
Y38650D01*
X30950Y35236D02*
Y38815D01*
X30850Y35236D02*
Y38998D01*
X29709Y35200D02*
X30009D01*
X29709Y35100D02*
X30009D01*
X29709Y35000D02*
X30009D01*
X29709Y34900D02*
X30009D01*
X32750Y34149D02*
Y36198D01*
X32850Y34149D02*
Y36098D01*
X32550Y34249D02*
Y36398D01*
X32509Y34290D02*
Y35236D01*
X33050Y34118D02*
Y35898D01*
X33150Y34087D02*
Y35798D01*
X32650Y34149D02*
Y36298D01*
X32950Y34139D02*
Y35998D01*
X32509Y34700D02*
X34803D01*
X32509Y34600D02*
X34803D01*
X29709Y34800D02*
X30009D01*
X29709Y34700D02*
X30009D01*
X29709Y34600D02*
X30009D01*
X32509Y34500D02*
X34803D01*
X29709D02*
X30009D01*
X32509Y34400D02*
X34803D01*
X32509Y34300D02*
X34803D01*
X32509Y34290D02*
X32659Y34140D01*
X32599Y34200D02*
X34803D01*
X33113Y34100D02*
X34803D01*
X29816Y28500D02*
X40084D01*
X29766Y28400D02*
X40033D01*
X30009Y32536D02*
X32011D01*
X29700Y28300D02*
X39996D01*
X29614Y28200D02*
X39970D01*
X29500Y28100D02*
X39955D01*
X29336Y28000D02*
X39950D01*
X29709Y34400D02*
X30009D01*
X29709Y34300D02*
X30009D01*
Y32536D02*
Y35236D01*
X29709Y34200D02*
X30009D01*
X29850Y29213D02*
Y39250D01*
X29709Y32536D02*
Y35236D01*
X29750Y29427D02*
Y39250D01*
X29709Y34100D02*
X30009D01*
X29709Y34000D02*
X30009D01*
X29709Y33900D02*
X30009D01*
X29709Y33800D02*
X30009D01*
X29709Y33700D02*
X30009D01*
X29709Y33600D02*
X30009D01*
X29709Y33500D02*
X30009D01*
X29709Y33400D02*
X30009D01*
X29709Y33300D02*
X30009D01*
X29709Y33200D02*
X30009D01*
X29709Y33100D02*
X30009D01*
X29709Y33000D02*
X30009D01*
X29709Y32900D02*
X30009D01*
X29709Y32800D02*
X30009D01*
X29709Y32700D02*
X30009D01*
X29709Y32600D02*
X30009D01*
X29450Y29735D02*
Y32536D01*
X29250Y29837D02*
Y32536D01*
X29650Y29562D02*
Y32536D01*
X29550Y29660D02*
Y32536D01*
X29350Y29793D02*
Y32536D01*
X44359Y27200D02*
X44600D01*
X44359Y27100D02*
X44600D01*
X44359Y27000D02*
X44600D01*
X44359Y26900D02*
X44600D01*
X44359Y26800D02*
X44600D01*
X44359Y26700D02*
X44600D01*
X44359Y26600D02*
X44600D01*
X44359Y26500D02*
X44600D01*
X44359Y26400D02*
X44600D01*
X44359Y26300D02*
X44600D01*
X44359Y26200D02*
X44600D01*
X44359Y26100D02*
X44600D01*
X44359Y26000D02*
X44600D01*
X44359Y25900D02*
X44600D01*
X44359Y25800D02*
X44600D01*
X44359Y25700D02*
X44600D01*
X43991Y25600D02*
X44600D01*
X43991Y25500D02*
X44600D01*
X43991Y25400D02*
X44600D01*
X43991Y25300D02*
X44600D01*
X43991Y25200D02*
X44600D01*
X43991Y25100D02*
X44600D01*
X43991Y25000D02*
X44600D01*
X43991Y24900D02*
X44600D01*
X43991Y24800D02*
X44600D01*
X43991Y24700D02*
X44600D01*
X43991Y24600D02*
X44600D01*
X43991Y24500D02*
X44600D01*
X43991Y24400D02*
X44600D01*
X43991Y24300D02*
X44600D01*
X43991Y24200D02*
X44600D01*
X44359Y25692D02*
Y28092D01*
X43991Y25692D02*
X44359D01*
X43991Y24100D02*
X44600D01*
X43991Y24000D02*
X44600D01*
X43991Y23900D02*
X44600D01*
X43991Y23800D02*
X44600D01*
X43991Y23700D02*
X44600D01*
X43991Y23600D02*
X44600D01*
X43991Y23500D02*
X44600D01*
X43991Y23400D02*
X44600D01*
X43991Y23300D02*
X44600D01*
X43991Y23200D02*
X44600D01*
X43991Y23100D02*
X44600D01*
X43991Y23000D02*
X44600D01*
X43991Y22900D02*
X44600D01*
X43991Y22800D02*
X44600D01*
X43991Y22700D02*
X44600D01*
X43991Y22600D02*
X44600D01*
X43991Y22500D02*
X44600D01*
X43991Y22400D02*
X44600D01*
X43991Y22300D02*
X44600D01*
X43991Y22200D02*
X44600D01*
X43991Y22100D02*
X44600D01*
X43991Y22000D02*
X44600D01*
X43991Y21900D02*
X44600D01*
X43991Y21800D02*
X44600D01*
X43991Y21700D02*
X44600D01*
X43991Y21600D02*
X44600D01*
X43991Y21500D02*
X44600D01*
X43991Y21400D02*
X44600D01*
X43991Y21300D02*
X44600D01*
X43991Y21200D02*
X44600D01*
X43991Y21100D02*
X44600D01*
X43991Y21000D02*
X44600D01*
X43991Y20900D02*
X44600D01*
X43991Y20800D02*
X44600D01*
X43991Y20700D02*
X44600D01*
X43991Y20600D02*
X44600D01*
X43991Y20500D02*
X44600D01*
X43991Y20400D02*
X44600D01*
X43991Y20300D02*
X44600D01*
X43991Y20200D02*
X44600D01*
X44341Y13500D02*
X44600D01*
X44341Y13400D02*
X44600D01*
X44341Y13300D02*
X44600D01*
X44341Y13200D02*
X44600D01*
X44341Y13100D02*
X44600D01*
X44341Y13000D02*
X44600D01*
X44341Y12900D02*
X44600D01*
X43991Y20100D02*
X44600D01*
X43991Y20000D02*
X44600D01*
X43991Y19900D02*
X44600D01*
X43991Y19800D02*
X44600D01*
X43991Y19700D02*
X44600D01*
X43991Y19600D02*
X44600D01*
X43991Y19500D02*
X44600D01*
X44341Y12800D02*
X44600D01*
X44341Y12700D02*
X44600D01*
Y550D02*
Y47450D01*
X44341Y11108D02*
Y13508D01*
X44550Y550D02*
Y47450D01*
X44450Y550D02*
Y47450D01*
X44350Y550D02*
Y25692D01*
X44250Y13508D02*
Y25692D01*
X44150Y13508D02*
Y25692D01*
X44050Y13508D02*
Y25692D01*
X43991Y13508D02*
Y25692D01*
X44341Y12600D02*
X44600D01*
X44341Y12500D02*
X44600D01*
X44341Y12400D02*
X44600D01*
X44341Y12300D02*
X44600D01*
X44341Y12200D02*
X44600D01*
X44341Y12100D02*
X44600D01*
X44341Y12000D02*
X44600D01*
X44341Y11900D02*
X44600D01*
X44341Y11800D02*
X44600D01*
X44341Y11700D02*
X44600D01*
X44341Y11600D02*
X44600D01*
X44341Y11500D02*
X44600D01*
X44341Y11400D02*
X44600D01*
X44341Y11300D02*
X44600D01*
X44341Y11200D02*
X44600D01*
X44250Y7686D02*
Y11108D01*
X44150Y7877D02*
Y11108D01*
X43991Y19400D02*
X44600D01*
X43991Y19300D02*
X44600D01*
X43991Y19200D02*
X44600D01*
X43991Y19100D02*
X44600D01*
X43991Y19000D02*
X44600D01*
X43991Y18900D02*
X44600D01*
X43991Y18800D02*
X44600D01*
X43991Y18700D02*
X44600D01*
X43991Y18600D02*
X44600D01*
X43991Y18500D02*
X44600D01*
X43991Y18400D02*
X44600D01*
X43991Y18300D02*
X44600D01*
X43991Y18200D02*
X44600D01*
X43991Y18100D02*
X44600D01*
X43991Y18000D02*
X44600D01*
X43991Y17900D02*
X44600D01*
X43991Y17800D02*
X44600D01*
X43991Y17700D02*
X44600D01*
X43991Y17600D02*
X44600D01*
X43991Y17500D02*
X44600D01*
X43991Y17400D02*
X44600D01*
X43991Y17300D02*
X44600D01*
X43991Y17200D02*
X44600D01*
X43991Y17100D02*
X44600D01*
X43991Y17000D02*
X44600D01*
X43991Y16900D02*
X44600D01*
X43991Y16800D02*
X44600D01*
X43991Y16700D02*
X44600D01*
X43991Y16600D02*
X44600D01*
X41600Y27200D02*
X41959D01*
X41600Y27100D02*
X41959D01*
X41600Y27000D02*
X41959D01*
Y25692D02*
X42291D01*
X41169Y25600D02*
X42291D01*
X41069Y25500D02*
X42291D01*
X40969Y25400D02*
X42291D01*
X40869Y25300D02*
X42291D01*
X40769Y25200D02*
X42291D01*
X40669Y25100D02*
X42291D01*
X40569Y25000D02*
X42291D01*
X40469Y24900D02*
X42291D01*
X40369Y24800D02*
X42291D01*
X40269Y24700D02*
X42291D01*
X40169Y24600D02*
X42291D01*
X40069Y24500D02*
X42291D01*
X43991Y16500D02*
X44600D01*
X43991Y16400D02*
X44600D01*
X39969Y24400D02*
X42291D01*
X39869Y24300D02*
X42291D01*
X39769Y24200D02*
X42291D01*
X39646Y24100D02*
X42291D01*
X33110Y24000D02*
X42291D01*
X33011Y23900D02*
X42291D01*
X32877Y23800D02*
X42291D01*
X32662Y23700D02*
X42291D01*
X43991Y16300D02*
X44600D01*
X43991Y16200D02*
X44600D01*
X43991Y16100D02*
X44600D01*
X43991Y16000D02*
X44600D01*
X43991Y15900D02*
X44600D01*
X43991Y15800D02*
X44600D01*
X43991Y15700D02*
X44600D01*
X43991Y15600D02*
X44600D01*
X43991Y15500D02*
X44600D01*
X43991Y15400D02*
X44600D01*
X43991Y15300D02*
X44600D01*
X43991Y15200D02*
X44600D01*
X43991Y15100D02*
X44600D01*
X43991Y15000D02*
X44600D01*
X43991Y14900D02*
X44600D01*
X43991Y14800D02*
X44600D01*
X43991Y14700D02*
X44600D01*
X43991Y14600D02*
X44600D01*
X43991Y14500D02*
X44600D01*
X43991Y14400D02*
X44600D01*
X43991Y14300D02*
X44600D01*
X43991Y14200D02*
X44600D01*
X43991Y14100D02*
X44600D01*
X43991Y14000D02*
X44600D01*
X43991Y13900D02*
X44600D01*
X43991Y13800D02*
X44600D01*
X43991Y13700D02*
X44600D01*
X43991Y13600D02*
X44600D01*
X40900Y11100D02*
X44600D01*
X43991Y13508D02*
X44341D01*
X43750Y8262D02*
Y11108D01*
X43650Y8314D02*
Y11108D01*
X43550Y8356D02*
Y11108D01*
X44050Y8011D02*
Y11108D01*
X43950Y8114D02*
Y11108D01*
X43850Y8196D02*
Y11108D01*
X42291Y13508D02*
Y25692D01*
X42250Y13508D02*
Y25692D01*
X42150Y13508D02*
Y25692D01*
X42050Y13508D02*
Y25692D01*
X41941Y11108D02*
X44341D01*
X43450Y8387D02*
Y11108D01*
X41941Y13508D02*
X42291D01*
X43350Y8409D02*
Y11108D01*
X43250Y8423D02*
Y11108D01*
X43150Y8428D02*
Y11108D01*
X43050Y8424D02*
Y11108D01*
X42950Y8413D02*
Y11108D01*
X42850Y8392D02*
Y11108D01*
X42750Y8362D02*
Y11108D01*
X42650Y8323D02*
Y11108D01*
X42550Y8272D02*
Y11108D01*
X42450Y8209D02*
Y11108D01*
X42350Y8130D02*
Y11108D01*
X42250Y8032D02*
Y11108D01*
X42150Y7905D02*
Y11108D01*
X42050Y7728D02*
Y11108D01*
X44244Y7700D02*
X44600D01*
X44281Y7600D02*
X44600D01*
X44309Y7500D02*
X44600D01*
X44328Y7400D02*
X44600D01*
X44338Y7300D02*
X44600D01*
X44340Y7200D02*
X44600D01*
X44334Y7100D02*
X44600D01*
X44319Y7000D02*
X44600D01*
X43398Y8400D02*
X44600D01*
X43680Y8300D02*
X44600D01*
X43844Y8200D02*
X44600D01*
X43965Y8100D02*
X44600D01*
X44059Y8000D02*
X44600D01*
X44135Y7900D02*
X44600D01*
X44195Y7800D02*
X44600D01*
X44295Y6900D02*
X44600D01*
X44262Y6800D02*
X44600D01*
X44218Y6700D02*
X44600D01*
X44163Y6600D02*
X44600D01*
X44095Y6500D02*
X44600D01*
X44009Y6400D02*
X44600D01*
X44106Y5400D02*
X44600D01*
X43902Y6300D02*
X44600D01*
X43760Y6200D02*
X44600D01*
X43550Y6100D02*
X44600D01*
X43591Y5800D02*
X44600D01*
X43785Y5700D02*
X44600D01*
X43920Y5600D02*
X44600D01*
X44024Y5500D02*
X44600D01*
X43950Y5574D02*
Y6342D01*
X43850Y5656D02*
Y6260D01*
X43750Y5722D02*
Y6194D01*
X43650Y5774D02*
Y6141D01*
X44250Y5146D02*
Y6770D01*
X44173Y5300D02*
X44600D01*
X44150Y5337D02*
Y6578D01*
X44050Y5471D02*
Y6445D01*
X43450Y5847D02*
Y6068D01*
X43350Y5869D02*
Y6046D01*
X43250Y5883D02*
Y6033D01*
X43150Y5888D02*
Y6028D01*
X43550Y5816D02*
Y6100D01*
X43050Y5884D02*
Y6031D01*
X42950Y5873D02*
Y6043D01*
X44226Y5200D02*
X44600D01*
X44322Y4900D02*
X44600D01*
X44335Y4800D02*
X44600D01*
X44341Y4700D02*
X44600D01*
X44337Y4600D02*
X44600D01*
X44326Y4500D02*
X44600D01*
X44306Y4400D02*
X44600D01*
X44268Y5100D02*
X44600D01*
X44299Y5000D02*
X44600D01*
X44276Y4300D02*
X44600D01*
X44237Y4200D02*
X44600D01*
X44187Y4100D02*
X44600D01*
X44124Y4000D02*
X44600D01*
X44046Y3900D02*
X44600D01*
X43986Y3000D02*
X44600D01*
X44076Y2900D02*
X44600D01*
X44148Y2800D02*
X44600D01*
X44206Y2700D02*
X44600D01*
X44252Y2600D02*
X44600D01*
X44288Y2500D02*
X44600D01*
X44250Y2606D02*
Y4230D01*
X44314Y2400D02*
X44600D01*
X43948Y3800D02*
X44600D01*
X43822Y3700D02*
X44600D01*
X43647Y3600D02*
X44600D01*
X43311Y3500D02*
X44600D01*
X43476Y3300D02*
X44600D01*
X43718Y3200D02*
X44600D01*
X43871Y3100D02*
X44600D01*
X44331Y2300D02*
X44600D01*
X44339Y2200D02*
X44600D01*
X44340Y2100D02*
X44600D01*
X44331Y2000D02*
X44600D01*
X44315Y1900D02*
X44600D01*
X44289Y1800D02*
X44600D01*
X44254Y1700D02*
X44600D01*
X44208Y1600D02*
X44600D01*
X44151Y1500D02*
X44600D01*
X44079Y1400D02*
X44600D01*
X43990Y1300D02*
X44600D01*
X43877Y1200D02*
X44600D01*
X43725Y1100D02*
X44600D01*
X43490Y1000D02*
X44600D01*
X43850Y3116D02*
Y3720D01*
X43750Y3182D02*
Y3654D01*
X43650Y3234D02*
Y3601D01*
X43550Y3276D02*
Y3560D01*
X44150Y2797D02*
Y4038D01*
X44050Y2931D02*
Y3905D01*
X43950Y3034D02*
Y3802D01*
X43450Y3307D02*
Y3528D01*
X43350Y3329D02*
Y3506D01*
X43150Y3348D02*
Y3488D01*
X43050Y3344D02*
Y3491D01*
X43250Y3343D02*
Y3493D01*
X44250Y550D02*
Y1690D01*
X44150Y550D02*
Y1498D01*
X44050Y550D02*
Y1365D01*
X43950Y550D02*
Y1262D01*
X43850Y550D02*
Y1180D01*
X43750Y550D02*
Y1114D01*
X43650Y550D02*
Y1061D01*
X43550Y550D02*
Y1020D01*
X43450Y550D02*
Y988D01*
X43350Y550D02*
Y966D01*
X43250Y550D02*
Y953D01*
X43150Y550D02*
Y948D01*
X43050Y550D02*
Y951D01*
X41166Y10800D02*
X44600D01*
X41254Y10600D02*
X44600D01*
X41280Y10500D02*
X44600D01*
X41295Y10400D02*
X44600D01*
X41300Y10300D02*
X44600D01*
X41295Y10200D02*
X44600D01*
X41280Y10100D02*
X44600D01*
X41254Y10000D02*
X44600D01*
X41014Y11000D02*
X44600D01*
X41100Y10900D02*
X44600D01*
X41217Y10700D02*
X44600D01*
X41216Y9900D02*
X44600D01*
X41166Y9800D02*
X44600D01*
X41100Y9700D02*
X44600D01*
X41014Y9600D02*
X44600D01*
X40900Y9500D02*
X44600D01*
X40850Y9400D02*
X44600D01*
X40850Y9300D02*
X44600D01*
X40850Y9200D02*
X44600D01*
X40850Y9100D02*
X44600D01*
X40850Y9000D02*
X44600D01*
X40850Y8900D02*
X44600D01*
X40850Y8800D02*
X44600D01*
X40850Y8700D02*
X44600D01*
X40850Y8600D02*
X44600D01*
X40850Y8500D02*
X44600D01*
X29150Y6000D02*
X44600D01*
X29150Y5900D02*
X44600D01*
X41010Y7800D02*
X42086D01*
X41085Y7700D02*
X42037D01*
X41187Y6800D02*
X42019D01*
X41143Y6700D02*
X42063D01*
X41085Y6600D02*
X42118D01*
X41010Y6500D02*
X42187D01*
X42150Y5365D02*
Y6551D01*
X40850Y8400D02*
X42883D01*
X40850Y8300D02*
X42602D01*
X40850Y8200D02*
X42437D01*
X40850Y8100D02*
X42316D01*
X40850Y8000D02*
X42222D01*
X40911Y6400D02*
X42272D01*
X40912Y7900D02*
X42146D01*
X42850Y5852D02*
Y6064D01*
X42750Y5822D02*
Y6093D01*
X42650Y5783D02*
Y6133D01*
X42550Y5732D02*
Y6183D01*
X42350Y5590D02*
Y6325D01*
X42450Y5669D02*
Y6247D01*
X42250Y5492D02*
Y6424D01*
X29150Y6100D02*
X42731D01*
X29150Y5800D02*
X42690D01*
X40777Y6300D02*
X42380D01*
X40562Y6200D02*
X42521D01*
X29150Y5700D02*
X42496D01*
X29150Y5600D02*
X42361D01*
X29150Y5500D02*
X42257D01*
X42950Y3333D02*
Y3503D01*
X42750Y3282D02*
Y3553D01*
X42850Y3312D02*
Y3524D01*
X42550Y3192D02*
Y3643D01*
X42650Y3243D02*
Y3593D01*
X42350Y3050D02*
Y3785D01*
X42450Y3129D02*
Y3707D01*
X29150Y3500D02*
X42970D01*
X29150Y3400D02*
X44600D01*
X29150Y3700D02*
X42459D01*
X29150Y3600D02*
X42634D01*
X29150Y3300D02*
X42805D01*
X29150Y3200D02*
X42564D01*
X42950Y550D02*
Y963D01*
X42850Y550D02*
Y984D01*
X42750Y550D02*
Y1013D01*
X42650Y550D02*
Y1053D01*
X42550Y550D02*
Y1103D01*
X42450Y550D02*
Y1167D01*
X29150Y1000D02*
X42791D01*
X29150Y900D02*
X44600D01*
X29150Y3100D02*
X42410D01*
X29150Y1100D02*
X42556D01*
X29150Y800D02*
X44600D01*
X29150Y700D02*
X44600D01*
X29150Y600D02*
X44600D01*
X29150Y5400D02*
X42175D01*
X29150Y5300D02*
X42108D01*
X42050Y5188D02*
Y6728D01*
X29150Y5200D02*
X42055D01*
X42150Y2825D02*
Y4011D01*
X42250Y2952D02*
Y3884D01*
X42050Y2648D02*
Y4188D01*
X29150Y4100D02*
X42094D01*
X29150Y4000D02*
X42157D01*
X29150Y5100D02*
X42014D01*
X29150Y4200D02*
X42044D01*
X29150Y3800D02*
X42333D01*
X29150Y3000D02*
X42296D01*
X29150Y3900D02*
X42235D01*
X29150Y2900D02*
X42206D01*
X42350Y550D02*
Y1245D01*
X29150Y2800D02*
X42133D01*
X29150Y2700D02*
X42075D01*
X42150Y550D02*
Y1471D01*
X42250Y550D02*
Y1344D01*
X42050Y550D02*
Y1648D01*
X29150Y2600D02*
X42029D01*
X29150Y1500D02*
X42131D01*
X29150Y1700D02*
X42027D01*
X29150Y1600D02*
X42073D01*
X29150Y1300D02*
X42291D01*
X29150Y1200D02*
X42405D01*
X29150Y1400D02*
X42202D01*
X41600Y26900D02*
X41959D01*
X41600Y26800D02*
X41959D01*
X41600Y26700D02*
X41959D01*
X41600Y26600D02*
X41959D01*
Y25692D02*
Y28092D01*
X41600Y26500D02*
X41959D01*
X40250Y26519D02*
Y27286D01*
X41600Y26300D02*
Y27240D01*
X40300Y26569D02*
Y27240D01*
X40192Y26461D02*
X40300Y26569D01*
X40050Y26319D02*
Y27565D01*
X40150Y26419D02*
Y27400D01*
X39950Y26219D02*
Y32538D01*
X39850Y26119D02*
Y32440D01*
X39750Y26019D02*
Y32365D01*
X41600Y26400D02*
X41959D01*
X41600Y26300D02*
X41959D01*
X41592Y26200D02*
X41959D01*
X41568Y26100D02*
X41959D01*
X41527Y26000D02*
X41959D01*
X41462Y25900D02*
X41959D01*
X41369Y25800D02*
X41959D01*
X39940Y26210D02*
X40192Y26461D01*
X41269Y25700D02*
X41959D01*
X40860Y25290D02*
X41409Y25840D01*
X40858Y25289D02*
X41110Y25540D01*
X39031Y25300D02*
X40190Y26460D01*
X38150Y25300D02*
Y32947D01*
X38250Y25300D02*
Y32889D01*
X38050Y25300D02*
Y32947D01*
X37950Y25300D02*
Y32947D01*
X37850Y25300D02*
Y32947D01*
X37750Y25300D02*
Y32947D01*
X37550Y25300D02*
Y35550D01*
X37650Y25300D02*
Y32947D01*
X37450Y25300D02*
Y35550D01*
X37350Y25300D02*
Y35550D01*
X37250Y25300D02*
Y32947D01*
X37150Y25300D02*
Y32947D01*
X37050Y25300D02*
Y32947D01*
X36950Y25300D02*
Y32947D01*
X36850Y25300D02*
Y32947D01*
X39650Y25919D02*
Y32307D01*
X39550Y25819D02*
Y32263D01*
X39450Y25719D02*
Y32232D01*
X39350Y25619D02*
Y32211D01*
X39250Y25519D02*
Y32201D01*
X39150Y25419D02*
Y32201D01*
X39050Y25319D02*
Y32211D01*
X38850Y25300D02*
Y32263D01*
X38950Y25300D02*
Y32232D01*
X38650Y25300D02*
Y32365D01*
X38750Y25300D02*
Y32307D01*
X38450Y25300D02*
Y32539D01*
X38550Y25300D02*
Y32440D01*
X38350Y25300D02*
Y32674D01*
X41950Y13508D02*
Y27976D01*
X41850Y550D02*
Y27564D01*
X41750Y550D02*
Y27400D01*
X41250Y10613D02*
Y25680D01*
X41650Y550D02*
Y27286D01*
X41550Y550D02*
Y26049D01*
X41450Y550D02*
Y25884D01*
X41350Y550D02*
Y25780D01*
X39760Y24191D02*
X40858Y25289D01*
X40850Y11135D02*
Y25280D01*
X40750Y11193D02*
Y25180D01*
X40650Y11237D02*
Y25080D01*
X41150Y10827D02*
Y25580D01*
X41050Y10962D02*
Y25480D01*
X40950Y11060D02*
Y25380D01*
X40550Y11268D02*
Y24980D01*
X40450Y11289D02*
Y24880D01*
X40350Y11299D02*
Y24780D01*
X40250Y11299D02*
Y24680D01*
X40150Y11289D02*
Y24580D01*
X40050Y11268D02*
Y24480D01*
X39950Y11237D02*
Y24380D01*
X39850Y11193D02*
Y24280D01*
X39750Y11135D02*
Y24181D01*
X39650Y11060D02*
Y24102D01*
X39550Y10961D02*
Y24050D01*
X39450Y10826D02*
Y24017D01*
X39350Y10611D02*
Y24002D01*
X39250Y550D02*
Y24000D01*
X39150Y550D02*
Y24000D01*
X39050Y550D02*
Y24000D01*
X38950Y550D02*
Y24000D01*
X38850Y550D02*
Y24000D01*
X38750Y550D02*
Y24000D01*
X38350Y9203D02*
Y24000D01*
X38250Y9302D02*
Y24000D01*
X36750Y25300D02*
Y32947D01*
X38150Y9381D02*
Y24000D01*
X38650Y8539D02*
Y24000D01*
X38550Y8898D02*
Y24000D01*
X38450Y9076D02*
Y24000D01*
X37850Y9534D02*
Y24000D01*
X37750Y9564D02*
Y24000D01*
X37550Y9597D02*
Y24000D01*
X37450Y9600D02*
Y24000D01*
X38050Y9444D02*
Y24000D01*
X37950Y9495D02*
Y24000D01*
X37650Y9585D02*
Y24000D01*
X37350Y9595D02*
Y24000D01*
X37250Y9582D02*
Y24000D01*
X37150Y9560D02*
Y24000D01*
X37050Y9529D02*
Y24000D01*
X36950Y9487D02*
Y24000D01*
X36850Y9435D02*
Y24000D01*
X36750Y9369D02*
Y24000D01*
X36650Y25300D02*
Y32947D01*
X36550Y25300D02*
Y32947D01*
X36450Y25300D02*
Y32947D01*
X36350Y25300D02*
Y32947D01*
X36250Y25300D02*
Y32947D01*
X36150Y25300D02*
Y32947D01*
X36050Y25300D02*
Y32947D01*
X35950Y25300D02*
Y32947D01*
X34750Y25300D02*
Y35550D01*
X35850Y25300D02*
Y32947D01*
X34650Y25300D02*
Y35550D01*
X34550Y25300D02*
Y35550D01*
X34450Y25300D02*
Y35550D01*
X34350Y25300D02*
Y35550D01*
X34250Y25300D02*
Y35550D01*
X35750Y25300D02*
Y32947D01*
X35650Y25300D02*
Y32947D01*
X35550Y25300D02*
Y32947D01*
X35450Y25300D02*
Y32947D01*
X35350Y25300D02*
Y32947D01*
X35250Y25300D02*
Y32947D01*
X35150Y25300D02*
Y32947D01*
X32663Y25600D02*
X39331D01*
X32877Y25500D02*
X39231D01*
X35050Y25300D02*
Y32947D01*
X33012Y25400D02*
X39131D01*
X34950Y25300D02*
Y32947D01*
X33110Y25300D02*
X39031D01*
X34850D02*
Y32947D01*
X34150Y25300D02*
Y35550D01*
X34050Y25300D02*
Y35550D01*
X33950Y25300D02*
Y35550D01*
X33850Y25300D02*
Y35550D01*
X33750Y25300D02*
Y32837D01*
X33650Y25300D02*
Y32623D01*
X33550Y25300D02*
Y32488D01*
X31950Y25566D02*
Y32536D01*
X32050Y25604D02*
Y32489D01*
X31850Y25516D02*
Y32536D01*
X31750Y25450D02*
Y32536D01*
X31650Y25364D02*
Y32536D01*
X31550Y25250D02*
Y32536D01*
X31450Y25085D02*
Y32536D01*
X33450Y25300D02*
Y32390D01*
X33050Y25364D02*
Y32182D01*
X32950Y25450D02*
Y32161D01*
X32850Y25516D02*
Y32151D01*
X33350Y25300D02*
Y32315D01*
X33250Y25300D02*
Y32257D01*
X33150Y25300D02*
Y32213D01*
X32750Y25567D02*
Y32151D01*
X32650Y25604D02*
Y32161D01*
X32550Y25630D02*
Y32182D01*
X32350Y25650D02*
Y32257D01*
X32250Y25645D02*
Y32315D01*
X32450Y25645D02*
Y32213D01*
X32150Y25630D02*
Y32390D01*
X36650Y9287D02*
Y24000D01*
X36550Y9185D02*
Y24000D01*
X36450Y9051D02*
Y24000D01*
X36350Y8861D02*
Y24000D01*
X36250Y550D02*
Y24000D01*
X36150Y550D02*
Y24000D01*
X36050Y550D02*
Y24000D01*
X35950Y550D02*
Y24000D01*
X33110D02*
X39300D01*
X35850Y550D02*
Y24000D01*
X35750Y550D02*
Y24000D01*
X35650Y550D02*
Y24000D01*
X35550Y550D02*
Y24000D01*
X35450Y550D02*
Y24000D01*
X35350Y550D02*
Y24000D01*
X35250Y550D02*
Y24000D01*
X35150Y550D02*
Y24000D01*
X35050Y550D02*
Y24000D01*
X34950Y550D02*
Y24000D01*
X34850Y550D02*
Y24000D01*
X34750Y550D02*
Y24000D01*
X34650Y550D02*
Y24000D01*
X34550Y550D02*
Y24000D01*
X34450Y550D02*
Y24000D01*
X34350Y550D02*
Y24000D01*
X34250Y550D02*
Y24000D01*
X34150Y550D02*
Y24000D01*
X34050Y550D02*
Y24000D01*
X33950Y550D02*
Y24000D01*
X31350Y8861D02*
Y32536D01*
X31250Y550D02*
Y32536D01*
X31150Y550D02*
Y32536D01*
X31050Y550D02*
Y32536D01*
X30950Y550D02*
Y32536D01*
X30850Y550D02*
Y32536D01*
X30750Y550D02*
Y32536D01*
X30650Y550D02*
Y32536D01*
X30550Y550D02*
Y32536D01*
X30450Y550D02*
Y32536D01*
X30350Y550D02*
Y32536D01*
X30250Y550D02*
Y32536D01*
X30150Y550D02*
Y32536D01*
X29950Y550D02*
Y39250D01*
X33650Y8539D02*
Y24000D01*
X31450Y9051D02*
Y24215D01*
X31550Y9185D02*
Y24050D01*
X33850Y550D02*
Y24000D01*
X33750Y550D02*
Y24000D01*
X30050Y550D02*
Y32536D01*
X29850Y550D02*
Y28587D01*
X29750Y550D02*
Y28373D01*
X29650Y550D02*
Y28238D01*
X29550Y550D02*
Y28140D01*
X29450Y550D02*
Y28065D01*
X29350Y550D02*
Y28007D01*
X29250Y550D02*
Y27963D01*
X41941Y11108D02*
Y13508D01*
X40736Y11200D02*
X41941D01*
X40850Y7950D02*
Y9465D01*
X41950Y7375D02*
Y11108D01*
X41150Y7586D02*
Y9773D01*
X41050Y7750D02*
Y9638D01*
X40950Y7864D02*
Y9540D01*
X40313Y11300D02*
X41941D01*
X37938Y9500D02*
X39650D01*
X38122Y9400D02*
X39650D01*
X38252Y9300D02*
X39650D01*
X38352Y9200D02*
X39650D01*
X38433Y9100D02*
X39650D01*
X38654Y8500D02*
X39650D01*
X41143Y7600D02*
X42000D01*
X38658Y8400D02*
X39650D01*
X38654Y8300D02*
X39650D01*
X41187Y7500D02*
X41972D01*
X41218Y7400D02*
X41953D01*
X41239Y7300D02*
X41943D01*
X38497Y9000D02*
X39650D01*
X38549Y8900D02*
X39650D01*
X38589Y8800D02*
X39650D01*
X38620Y8700D02*
X39650D01*
X38641Y8600D02*
X39650D01*
X38641Y8200D02*
X39650D01*
X38620Y8100D02*
X39650D01*
X39650Y7950D02*
Y9540D01*
X39650Y7950D02*
Y9540D01*
X37484Y9600D02*
X39586D01*
X33654Y8500D02*
X36262D01*
X39450Y7750D02*
Y9774D01*
X39550Y7864D02*
Y9639D01*
X39350Y7585D02*
Y9989D01*
X33497Y9000D02*
X36418D01*
X33549Y8900D02*
X36367D01*
X33550Y8898D02*
Y24000D01*
X33589Y8800D02*
X36326D01*
X33620Y8700D02*
X36296D01*
X33641Y8600D02*
X36275D01*
X33658Y8400D02*
X36258D01*
X38589Y8000D02*
X39650D01*
X38549Y7900D02*
X39588D01*
X38497Y7800D02*
X39490D01*
X38432Y7700D02*
X39415D01*
X38352Y7600D02*
X39357D01*
X38251Y7500D02*
X39313D01*
X38121Y7400D02*
X39282D01*
X33641Y8200D02*
X36275D01*
X33620Y8100D02*
X36296D01*
X33654Y8300D02*
X36262D01*
X33589Y8000D02*
X36327D01*
X33549Y7900D02*
X36367D01*
X37937Y7300D02*
X39261D01*
X33497Y7800D02*
X36419D01*
X41249Y7200D02*
X41941D01*
X41249Y7100D02*
X41947D01*
X41250Y7174D02*
Y9987D01*
X41239Y7000D02*
X41962D01*
X41950Y4835D02*
Y7080D01*
X41218Y6900D02*
X41986D01*
X41250Y550D02*
Y7126D01*
X41150Y550D02*
Y6714D01*
X41050Y550D02*
Y6550D01*
X40950Y550D02*
Y6436D01*
X39550Y550D02*
Y6436D01*
X40850Y550D02*
Y6350D01*
X39450Y550D02*
Y6550D01*
X41950Y2295D02*
Y4540D01*
Y550D02*
Y2000D01*
X40750Y550D02*
Y6284D01*
X40650Y550D02*
Y6233D01*
X40550Y550D02*
Y6196D01*
X40450Y550D02*
Y6170D01*
X40350Y550D02*
Y6155D01*
X40250Y550D02*
Y6150D01*
X40150Y550D02*
Y6155D01*
X40050Y550D02*
Y6170D01*
X39950Y550D02*
Y6196D01*
X39850Y550D02*
Y6234D01*
X39750Y550D02*
Y6284D01*
X39650Y550D02*
Y6350D01*
X38650Y550D02*
Y8261D01*
X38550Y550D02*
Y7903D01*
X38450Y550D02*
Y7725D01*
X38350Y550D02*
Y7597D01*
X38250Y550D02*
Y7499D01*
X38150Y550D02*
Y7420D01*
X36750Y550D02*
Y7431D01*
X36650Y550D02*
Y7513D01*
X36450Y550D02*
Y7749D01*
X36550Y550D02*
Y7616D01*
X33650Y550D02*
Y8261D01*
X36350Y550D02*
Y7940D01*
X33550Y550D02*
Y7903D01*
X38050Y550D02*
Y7356D01*
X39350Y550D02*
Y6715D01*
X37950Y550D02*
Y7306D01*
X37850Y550D02*
Y7266D01*
X37750Y550D02*
Y7236D01*
X37650Y550D02*
Y7216D01*
X37550Y550D02*
Y7204D01*
X37350Y550D02*
Y7205D01*
X37450Y550D02*
Y7200D01*
X37250Y550D02*
Y7218D01*
X37150Y550D02*
Y7240D01*
X36950Y550D02*
Y7313D01*
X37050Y550D02*
Y7272D01*
X36850Y550D02*
Y7366D01*
X33050Y9444D02*
Y23936D01*
X32950Y9495D02*
Y23850D01*
X32850Y9534D02*
Y23784D01*
X32750Y9564D02*
Y23733D01*
X33450Y9076D02*
Y24000D01*
X33350Y9203D02*
Y24000D01*
X33250Y9302D02*
Y24000D01*
X33150Y9381D02*
Y24000D01*
X29150Y10600D02*
X39346D01*
X29150Y10500D02*
X39320D01*
X29150Y10400D02*
X39305D01*
X29150Y10300D02*
X39300D01*
X32650Y9585D02*
Y23696D01*
X32550Y9597D02*
Y23670D01*
X32450Y9600D02*
Y23655D01*
X32938Y9500D02*
X36978D01*
X33122Y9400D02*
X36794D01*
X33252Y9300D02*
X36664D01*
X33352Y9200D02*
X36563D01*
X33433Y9100D02*
X36483D01*
X33352Y7600D02*
X36564D01*
X33432Y7700D02*
X36483D01*
X29150Y10000D02*
X39346D01*
X29150Y9900D02*
X39384D01*
X29150Y10200D02*
X39305D01*
X29150Y10100D02*
X39320D01*
X29150Y9800D02*
X39434D01*
X29150Y9700D02*
X39500D01*
X32484Y9600D02*
X37432D01*
X32350Y9595D02*
Y23650D01*
X32250Y9582D02*
Y23655D01*
X32050Y9529D02*
Y23696D01*
X32150Y9560D02*
Y23670D01*
X31850Y9435D02*
Y23784D01*
X31950Y9487D02*
Y23734D01*
X31750Y9369D02*
Y23850D01*
X29150Y9600D02*
X32432D01*
X29150Y9500D02*
X31978D01*
X31650Y9287D02*
Y23936D01*
X29150Y9400D02*
X31794D01*
X29150Y9300D02*
X31664D01*
X29150Y9200D02*
X31563D01*
X29150Y9100D02*
X31483D01*
X29150Y9000D02*
X31418D01*
X29150Y8900D02*
X31367D01*
X29150Y8800D02*
X31326D01*
X29150Y8700D02*
X31296D01*
X29150Y8600D02*
X31275D01*
X29150Y8500D02*
X31262D01*
X29150Y8400D02*
X31258D01*
X29150Y8200D02*
X31275D01*
X29150Y8100D02*
X31296D01*
X29150Y8300D02*
X31262D01*
X29150Y8000D02*
X31327D01*
X29150Y7900D02*
X31367D01*
X29150Y7700D02*
X31483D01*
X29150Y7800D02*
X31419D01*
X29150Y7200D02*
X39251D01*
X29150Y7100D02*
X39251D01*
X33121Y7400D02*
X36795D01*
X32937Y7300D02*
X36979D01*
X29150Y7000D02*
X39261D01*
X29150Y6700D02*
X39357D01*
X29150Y6900D02*
X39282D01*
X29150Y6800D02*
X39313D01*
X29150Y6400D02*
X39589D01*
X29150Y6300D02*
X39723D01*
X29150Y6600D02*
X39415D01*
X29150Y6500D02*
X39490D01*
X29150Y5000D02*
X41982D01*
X29150Y4900D02*
X41959D01*
X29150Y6200D02*
X39938D01*
X29150Y4800D02*
X41946D01*
X29150Y4700D02*
X41941D01*
X29150Y4600D02*
X41944D01*
X29150Y4500D02*
X41955D01*
X29150Y4400D02*
X41976D01*
X29150Y4300D02*
X42005D01*
X29150Y2500D02*
X41993D01*
X29150Y2400D02*
X41967D01*
X29150Y2300D02*
X41950D01*
X29150Y2200D02*
X41942D01*
X29150Y2100D02*
X41942D01*
X29150Y2000D02*
X41950D01*
X29150Y1900D02*
X41966D01*
X29150Y1800D02*
X41992D01*
X33450Y550D02*
Y7725D01*
X33251Y7500D02*
X36664D01*
X33350Y550D02*
Y7597D01*
X33250Y550D02*
Y7499D01*
X33150Y550D02*
Y7420D01*
X31750Y550D02*
Y7431D01*
X31650Y550D02*
Y7513D01*
X29150Y7400D02*
X31795D01*
X29150Y7600D02*
X31564D01*
X29150Y7500D02*
X31664D01*
X31450Y550D02*
Y7749D01*
X31550Y550D02*
Y7616D01*
X31350Y550D02*
Y7940D01*
X33050Y550D02*
Y7356D01*
X32950Y550D02*
Y7306D01*
X32850Y550D02*
Y7266D01*
X32750Y550D02*
Y7236D01*
X32650Y550D02*
Y7216D01*
X32550Y550D02*
Y7204D01*
X32450Y550D02*
Y7200D01*
X32350Y550D02*
Y7205D01*
X32250Y550D02*
Y7218D01*
X29150Y7300D02*
X31979D01*
X32150Y550D02*
Y7240D01*
X31950Y550D02*
Y7313D01*
X32050Y550D02*
Y7272D01*
X31850Y550D02*
Y7366D01*
X29050Y39250D02*
X30598D01*
X29050Y39200D02*
X30648D01*
X29150Y42376D02*
Y47450D01*
X29050Y38900D02*
X30913D01*
X29050Y38800D02*
X30957D01*
X29050Y39100D02*
X30748D01*
X29050Y39000D02*
X30848D01*
X28877Y40950D02*
X29564D01*
X29050Y38700D02*
X31015D01*
X28367Y41100D02*
X29339D01*
X28786Y41000D02*
X29473D01*
X29050Y38500D02*
X31189D01*
X29050Y38400D02*
X31323D01*
X29050Y38600D02*
X31090D01*
X29050Y38300D02*
X31538D01*
X29050Y38200D02*
X31550D01*
X29050Y38100D02*
X31550D01*
X29050Y38000D02*
X31550D01*
X29050Y37900D02*
X31550D01*
X29050Y37800D02*
X31550D01*
X29050Y37700D02*
X31551D01*
X29050Y37400D02*
X31625D01*
X29050Y37300D02*
X31679D01*
X29050Y37600D02*
X31563D01*
X29050Y37500D02*
X31588D01*
X29050Y37100D02*
X31848D01*
X29050Y37000D02*
X31948D01*
X29050Y37200D02*
X31752D01*
X29050Y42161D02*
Y47450D01*
X28650Y41054D02*
Y47450D01*
X28550Y41080D02*
Y47450D01*
X28450Y41095D02*
Y47450D01*
X28950Y40950D02*
Y47450D01*
X28850Y40966D02*
Y47450D01*
X28750Y41017D02*
Y47450D01*
X28350Y41100D02*
Y47450D01*
X28250Y41095D02*
Y47450D01*
X28150Y41080D02*
Y47450D01*
X28050Y41054D02*
Y47450D01*
X27950Y41016D02*
Y47450D01*
X27850Y40966D02*
Y47450D01*
X27750Y40900D02*
Y47450D01*
X27650Y40814D02*
Y47450D01*
X29050Y40950D02*
Y41539D01*
X29150Y40950D02*
Y41324D01*
X27550Y40700D02*
Y47450D01*
X27450Y40535D02*
Y47450D01*
X22050Y35908D02*
Y47450D01*
X21950Y35962D02*
Y47450D01*
X21850Y36001D02*
Y47450D01*
X21750Y36029D02*
Y47450D01*
X21650Y36045D02*
Y47450D01*
X21550Y36050D02*
Y47450D01*
X21450Y36050D02*
Y47450D01*
X21350Y36050D02*
Y47450D01*
X21250Y36050D02*
Y47450D01*
X27350Y35236D02*
Y47450D01*
X27250Y35236D02*
Y47450D01*
X27150Y30653D02*
Y47450D01*
X27050Y30653D02*
Y47450D01*
X26950Y30653D02*
Y47450D01*
X26850Y30653D02*
Y47450D01*
X26750Y30653D02*
Y47450D01*
X26650Y30653D02*
Y47450D01*
X26550Y30653D02*
Y47450D01*
X26450Y30653D02*
Y47450D01*
X26350Y30653D02*
Y47450D01*
X26250Y30653D02*
Y47450D01*
X26150Y30653D02*
Y47450D01*
X26050Y30653D02*
Y47450D01*
X25950Y30653D02*
Y47450D01*
X29150Y35236D02*
Y39250D01*
X29050Y35236D02*
Y39250D01*
X27750Y35236D02*
Y39300D01*
X27750Y35236D02*
Y39300D01*
X27550Y35236D02*
Y39500D01*
X27650Y35236D02*
Y39386D01*
X27450Y35236D02*
Y39665D01*
X25850Y30653D02*
Y47450D01*
X25750Y30653D02*
Y47450D01*
X25650Y30653D02*
Y47450D01*
X25550Y30653D02*
Y47450D01*
X25450Y30653D02*
Y47450D01*
X25350Y30653D02*
Y47450D01*
X25250Y30653D02*
Y47450D01*
X25150Y30653D02*
Y47450D01*
X24450Y33405D02*
Y47450D01*
X24350Y33613D02*
Y47450D01*
X24250Y33743D02*
Y47450D01*
X24750Y30653D02*
Y47450D01*
X24650Y30653D02*
Y47450D01*
X24550Y30653D02*
Y47450D01*
X23850Y34144D02*
Y47450D01*
X23750Y34244D02*
Y47450D01*
X23650Y34344D02*
Y47450D01*
X23550Y34444D02*
Y47450D01*
X24150Y33844D02*
Y47450D01*
X24050Y33944D02*
Y47450D01*
X23950Y34044D02*
Y47450D01*
X23150Y34844D02*
Y47450D01*
X23050Y34944D02*
Y47450D01*
X22950Y35044D02*
Y47450D01*
X22850Y35144D02*
Y47450D01*
X23450Y34544D02*
Y47450D01*
X23350Y34644D02*
Y47450D01*
X23250Y34744D02*
Y47450D01*
X22450Y35544D02*
Y47450D01*
X22350Y35644D02*
Y47450D01*
X22250Y35744D02*
Y47450D01*
X22150Y35837D02*
Y47450D01*
X22750Y35244D02*
Y47450D01*
X22650Y35344D02*
Y47450D01*
X22550Y35444D02*
Y47450D01*
X550D02*
X44600D01*
X550Y47400D02*
X44600D01*
X550Y47300D02*
X44600D01*
X550Y47200D02*
X44600D01*
X550Y47100D02*
X44600D01*
X550Y47000D02*
X44600D01*
X550Y46900D02*
X44600D01*
X550Y46800D02*
X44600D01*
X550Y46700D02*
X44600D01*
X550Y46600D02*
X38032D01*
X550Y46500D02*
X37614D01*
X550Y46400D02*
X37450D01*
X550Y46300D02*
X31100D01*
X550Y46200D02*
X31100D01*
X550Y46100D02*
X31100D01*
X550Y46000D02*
X31100D01*
X550Y45900D02*
X31100D01*
X550Y45800D02*
X31100D01*
X550Y45700D02*
X31100D01*
X550Y45600D02*
X31100D01*
X550Y45500D02*
X31100D01*
X550Y45400D02*
X31100D01*
X550Y45300D02*
X31100D01*
X550Y45200D02*
X31100D01*
X550Y45100D02*
X31100D01*
X550Y45000D02*
X31100D01*
X550Y44900D02*
X30783D01*
X550Y44800D02*
X30606D01*
X550Y44700D02*
X30503D01*
X5199Y43900D02*
X30173D01*
X5199Y43800D02*
X30038D01*
X5199Y43700D02*
X29940D01*
X5199Y43600D02*
X29865D01*
X5199Y43500D02*
X29807D01*
X5199Y43400D02*
X29763D01*
X5199Y43300D02*
X29732D01*
X550Y44600D02*
X30430D01*
X550Y44500D02*
X30384D01*
X550Y44400D02*
X30358D01*
X550Y44300D02*
X30350D01*
X550Y44200D02*
X30350D01*
X550Y44100D02*
X30350D01*
X550Y44000D02*
X30350D01*
X5199Y43200D02*
X29711D01*
X5199Y43100D02*
X29701D01*
X5199Y43000D02*
X29701D01*
X5199Y42900D02*
X29711D01*
X5199Y42800D02*
X29687D01*
X5199Y42700D02*
X29473D01*
X5199Y42600D02*
X29338D01*
X5199Y42500D02*
X29240D01*
X5199Y42400D02*
X29165D01*
X5199Y42300D02*
X29107D01*
X5199Y42200D02*
X29063D01*
X5199Y42100D02*
X29032D01*
X5199Y42000D02*
X29011D01*
X5199Y41900D02*
X29001D01*
X5199Y41600D02*
X29032D01*
X5199Y41500D02*
X29063D01*
X5199Y41800D02*
X29001D01*
X5199Y41700D02*
X29011D01*
X5199Y41400D02*
X29107D01*
X5199Y41200D02*
X29240D01*
X5199Y41300D02*
X29165D01*
X5199Y41100D02*
X28333D01*
X550Y41000D02*
X27914D01*
X550Y40900D02*
X27750D01*
X550Y39300D02*
X27750D01*
X550Y39200D02*
X27750D01*
X550Y39100D02*
X27750D01*
X550Y39000D02*
X27750D01*
X4132Y38900D02*
X27750D01*
X5019Y38200D02*
X27750D01*
X5110Y38000D02*
X27750D01*
X5143Y37900D02*
X27750D01*
X5168Y37800D02*
X27750D01*
X5185Y37700D02*
X27750D01*
X5195Y37600D02*
X27750D01*
X5199Y37500D02*
X27750D01*
X4394Y38800D02*
X27750D01*
X4565Y38700D02*
X27750D01*
X4695Y38600D02*
X27750D01*
X4800Y38500D02*
X27750D01*
X4887Y38400D02*
X27750D01*
X4959Y38300D02*
X27750D01*
X5070Y38100D02*
X27750D01*
X21150Y36050D02*
Y47450D01*
X20750Y36068D02*
Y47450D01*
X20650Y36089D02*
Y47450D01*
X20550Y36099D02*
Y47450D01*
X21050Y36050D02*
Y47450D01*
X20950Y36050D02*
Y47450D01*
X20850Y36050D02*
Y47450D01*
X550Y40800D02*
X27636D01*
X550Y40700D02*
X27550D01*
X550Y40600D02*
X27484D01*
X550Y40500D02*
X27433D01*
X20450Y36099D02*
Y47450D01*
X550Y40400D02*
X27396D01*
X20350Y36089D02*
Y47450D01*
X550Y40300D02*
X27370D01*
X5195Y37400D02*
X27750D01*
X550Y40200D02*
X27355D01*
X550Y40100D02*
X27350D01*
X5185Y37300D02*
X27750D01*
X5167Y37200D02*
X27750D01*
X5142Y37100D02*
X27750D01*
X550Y39900D02*
X27370D01*
X550Y39800D02*
X27396D01*
X550Y40000D02*
X27355D01*
X550Y39700D02*
X27434D01*
X550Y39500D02*
X27550D01*
X550Y39400D02*
X27636D01*
X550Y39600D02*
X27484D01*
X29050Y36000D02*
X32948D01*
X29050Y35900D02*
X33048D01*
X29050Y36200D02*
X32748D01*
X29050Y36100D02*
X32848D01*
X29050Y35600D02*
X33463D01*
X29050Y35500D02*
X34803D01*
X29050Y35800D02*
X33148D01*
X29050Y35700D02*
X33268D01*
X29050Y32100D02*
X40400D01*
X29050Y32000D02*
X40400D01*
X29050Y35400D02*
X34803D01*
X29050Y35300D02*
X34803D01*
X29050Y31900D02*
X40400D01*
X29050Y31800D02*
X40400D01*
X29050Y31700D02*
X40400D01*
X29050Y31600D02*
X40400D01*
X29050Y31500D02*
X40400D01*
X29050Y31400D02*
X40400D01*
X29050Y31300D02*
X40400D01*
X29050Y31200D02*
X40400D01*
X29050Y31100D02*
X40400D01*
X29050Y31000D02*
X40400D01*
X29050Y30900D02*
X40400D01*
X29050Y30600D02*
X40438D01*
X29050Y30800D02*
X40401D01*
X29050Y30700D02*
X40413D01*
X29050Y30400D02*
X40529D01*
X29050Y30300D02*
X40602D01*
X29050Y30500D02*
X40475D01*
X29050Y36700D02*
X32248D01*
X29050Y36600D02*
X32348D01*
X29050Y36900D02*
X32048D01*
X29050Y36800D02*
X32148D01*
X29050Y36400D02*
X32548D01*
X29050Y36300D02*
X32648D01*
X29050Y36500D02*
X32448D01*
X29050Y35236D02*
X29709D01*
X27209D02*
X27750D01*
X29050Y32536D02*
X29709D01*
X27209D02*
Y35236D01*
Y32536D02*
X27750D01*
X27550Y30653D02*
Y32536D01*
X27450Y30653D02*
Y32536D01*
X27350Y30653D02*
Y32536D01*
X29050Y32300D02*
X32273D01*
X29050Y32200D02*
X32488D01*
X29050Y32500D02*
X32040D01*
X29050Y32400D02*
X32139D01*
X27647Y30600D02*
X27750D01*
X27647Y30500D02*
X27750D01*
X27647Y30400D02*
X27750D01*
X27250Y30653D02*
Y32536D01*
X25147Y30653D02*
X27647D01*
X24847Y30600D02*
X25147D01*
X24847Y30500D02*
X25147D01*
X24847Y30400D02*
X25147D01*
X27647Y30300D02*
X27750D01*
X24847D02*
X25147D01*
X29050Y30000D02*
X40898D01*
X29050Y29900D02*
X40998D01*
X29050Y30200D02*
X40698D01*
X29050Y30100D02*
X40798D01*
X29150Y29868D02*
Y32536D01*
X29050Y29889D02*
Y32536D01*
X27647Y29200D02*
X27782D01*
X27647Y29100D02*
X27800D01*
Y28900D02*
Y29150D01*
X27647Y29000D02*
X27800D01*
X27647Y28900D02*
X27800D01*
X29100Y27900D02*
X39955D01*
X29100Y27600D02*
X40034D01*
X29100Y27800D02*
X39970D01*
X29100Y27700D02*
X39996D01*
X29100Y27400D02*
X40150D01*
X29100Y27300D02*
X40236D01*
X29100Y27500D02*
X40084D01*
X27647Y28800D02*
X27800D01*
X27647Y28700D02*
X27800D01*
X27647Y28600D02*
X27800D01*
X27647Y28500D02*
X27800D01*
X29100Y27200D02*
X40300D01*
X29100Y27100D02*
X40300D01*
X27647Y28400D02*
X27800D01*
X27647Y30200D02*
X27750D01*
X27647Y30100D02*
X27750D01*
X27647Y30000D02*
X27750D01*
X27647Y29900D02*
X27750D01*
Y29400D02*
Y32536D01*
X27647Y29800D02*
X27750D01*
X27647Y27953D02*
Y30653D01*
X24847Y30200D02*
X25147D01*
X24847Y30100D02*
X25147D01*
X24847Y30000D02*
X25147D01*
X24847Y29900D02*
X25147D01*
Y27953D02*
Y30653D01*
X24847Y27953D02*
Y30653D01*
X27647Y29700D02*
X27750D01*
X27647Y29600D02*
X27750D01*
X27647Y29500D02*
X27750D01*
X27647Y29400D02*
X27750D01*
X27647Y28300D02*
X27800D01*
X27647Y28200D02*
X27800D01*
X27647Y29300D02*
X27758D01*
X27647Y28100D02*
X27800D01*
X24847Y29800D02*
X25147D01*
X27647Y28000D02*
X27800D01*
X25147Y27953D02*
X27647D01*
X5109Y37000D02*
X27750D01*
X5068Y36900D02*
X27750D01*
X20516Y36100D02*
X27750D01*
X21855Y36000D02*
X27750D01*
X22063Y35900D02*
X27750D01*
X22192Y35800D02*
X27750D01*
X22294Y35700D02*
X27750D01*
X22394Y35600D02*
X27750D01*
X5018Y36800D02*
X27750D01*
X4957Y36700D02*
X27750D01*
X4884Y36600D02*
X27750D01*
X4797Y36500D02*
X27750D01*
X4692Y36400D02*
X27750D01*
X4560Y36300D02*
X27750D01*
X4388Y36200D02*
X27750D01*
X23194Y34800D02*
X27209D01*
X23294Y34700D02*
X27209D01*
X23394Y34600D02*
X27209D01*
X23494Y34500D02*
X27209D01*
X23594Y34400D02*
X27209D01*
X23694Y34300D02*
X27209D01*
X23794Y34200D02*
X27209D01*
X22494Y35500D02*
X27750D01*
X22594Y35400D02*
X27750D01*
X22694Y35300D02*
X27750D01*
X22794Y35200D02*
X27209D01*
X22894Y35100D02*
X27209D01*
X22994Y35000D02*
X27209D01*
X23094Y34900D02*
X27209D01*
X23894Y34100D02*
X27209D01*
X20812Y36050D02*
X21550D01*
X23994Y34000D02*
X27209D01*
X24094Y33900D02*
X27209D01*
X22222Y35772D02*
X24222Y33772D01*
X550Y34100D02*
X20673D01*
X4121Y36100D02*
X20484D01*
X550Y34000D02*
X20538D01*
X20450Y33911D02*
Y34101D01*
X4132Y33900D02*
X20440D01*
X24451Y33400D02*
X27209D01*
X24479Y33300D02*
X27209D01*
X24500Y33100D02*
X27209D01*
X24500Y33000D02*
X27209D01*
X24500Y32900D02*
X27209D01*
X24500Y32800D02*
X27209D01*
X24500Y32700D02*
X27209D01*
X24194Y33800D02*
X27209D01*
X24287Y33700D02*
X27209D01*
X24358Y33600D02*
X27209D01*
X24412Y33500D02*
X27209D01*
X24495Y33200D02*
X27209D01*
X24500Y32500D02*
X27750D01*
X24500Y32400D02*
X27750D01*
X24500Y32600D02*
X27209D01*
X24500Y32300D02*
X27750D01*
X24500Y32200D02*
X27750D01*
X24500Y32100D02*
X27750D01*
X24500Y32000D02*
X27750D01*
X24500Y31900D02*
X27750D01*
X24500Y31800D02*
X27750D01*
X24500Y31700D02*
X27750D01*
X24500Y31600D02*
X27750D01*
X24500Y31500D02*
X27750D01*
X24500Y31400D02*
X27750D01*
X24500Y31300D02*
X27750D01*
X24500Y31200D02*
X27750D01*
X24500Y31100D02*
X27750D01*
X24500Y31000D02*
X27750D01*
X24500Y30900D02*
X27750D01*
X24500Y30800D02*
X27750D01*
X22800Y27900D02*
X27800D01*
X22800Y27800D02*
X27800D01*
X24500Y30700D02*
X27750D01*
X22800Y27700D02*
X27800D01*
X22800Y27600D02*
X27800D01*
X22800Y27500D02*
X27800D01*
X22800Y27400D02*
X27800D01*
X22800Y27300D02*
X27800D01*
X22800Y27200D02*
X27800D01*
X22800Y27100D02*
X27800D01*
X24847Y29700D02*
X25147D01*
X24847Y29600D02*
X25147D01*
X24500Y30653D02*
Y33100D01*
Y30653D02*
X24847D01*
Y29500D02*
X25147D01*
X24847Y29400D02*
X25147D01*
X24847Y29300D02*
X25147D01*
X5195Y32600D02*
X20414D01*
X5199Y32500D02*
X20507D01*
X20478Y32528D02*
X20557Y32450D01*
X20450Y32445D02*
Y32558D01*
X24847Y29200D02*
X25147D01*
X24847Y29100D02*
X25147D01*
X24847Y29000D02*
X25147D01*
X24847Y28900D02*
X25147D01*
X24847Y28800D02*
X25147D01*
X24847Y28700D02*
X25147D01*
X24847Y28600D02*
X25147D01*
X24847Y28500D02*
X25147D01*
X24847Y28400D02*
X25147D01*
X24847Y28300D02*
X25147D01*
X24847Y28200D02*
X25147D01*
X24847Y28100D02*
X25147D01*
X24847Y28000D02*
X25147D01*
X22800Y27953D02*
X24847D01*
X20250Y36068D02*
Y47450D01*
X20150Y36037D02*
Y47450D01*
X20050Y35993D02*
Y47450D01*
X19950Y35935D02*
Y47450D01*
X19850Y35860D02*
Y47450D01*
X19750Y35761D02*
Y47450D01*
X19650Y35626D02*
Y47450D01*
X19550Y35412D02*
Y47450D01*
X18750Y32317D02*
Y47450D01*
X18450Y32395D02*
Y47450D01*
X18350Y32400D02*
Y47450D01*
X18250Y32395D02*
Y47450D01*
X18850Y32266D02*
Y47450D01*
X18650Y32354D02*
Y47450D01*
X18550Y32380D02*
Y47450D01*
X18150Y32380D02*
Y47450D01*
X18050Y32354D02*
Y47450D01*
X17950Y32316D02*
Y47450D01*
X17850Y32266D02*
Y47450D01*
X17750Y32250D02*
Y47450D01*
X17650Y32250D02*
Y47450D01*
X17550Y32250D02*
Y47450D01*
X17450Y32250D02*
Y47450D01*
X17350Y32250D02*
Y47450D01*
X17250Y32250D02*
Y47450D01*
X17150Y32250D02*
Y47450D01*
X17050Y32250D02*
Y47450D01*
X16950Y32250D02*
Y47450D01*
X16850Y32250D02*
Y47450D01*
X5150Y43951D02*
Y47450D01*
X5199Y41051D02*
Y43951D01*
X5050D02*
Y47450D01*
X4950Y43951D02*
Y47450D01*
X16750Y32250D02*
Y47450D01*
X16650Y32250D02*
Y47450D01*
X5150Y37875D02*
Y41051D01*
X5050Y38142D02*
Y41051D01*
X4850Y43951D02*
Y47450D01*
X4750Y43951D02*
Y47450D01*
X4650Y43951D02*
Y47450D01*
X4550Y43951D02*
Y47450D01*
X4450Y43951D02*
Y47450D01*
X4950Y38314D02*
Y41051D01*
X4350Y43951D02*
Y47450D01*
X4850Y38445D02*
Y41051D01*
Y33445D02*
Y36558D01*
X4750Y38550D02*
Y41051D01*
Y33550D02*
Y36452D01*
X5150Y32875D02*
Y37128D01*
X5050Y33142D02*
Y36861D01*
X4950Y33314D02*
Y36689D01*
X4650Y38637D02*
Y41051D01*
X4550Y38710D02*
Y41051D01*
X4450Y38771D02*
Y41051D01*
X4350Y38821D02*
Y41051D01*
X4650Y33637D02*
Y36365D01*
X4550Y33710D02*
Y36293D01*
X4450Y33771D02*
Y36232D01*
X18950Y32200D02*
Y47450D01*
X16550Y32250D02*
Y47450D01*
X16450Y32250D02*
Y47450D01*
X16350Y32250D02*
Y47450D01*
X19350Y31422D02*
Y47450D01*
X19250Y31836D02*
Y47450D01*
X19150Y32000D02*
Y47450D01*
X19050Y32114D02*
Y47450D01*
X16250Y32250D02*
Y47450D01*
X16150Y32250D02*
Y47450D01*
X16050Y32250D02*
Y47450D01*
X15950Y32250D02*
Y47450D01*
X15850Y32250D02*
Y47450D01*
X15750Y32250D02*
Y47450D01*
X15650Y32250D02*
Y47450D01*
X15550Y32250D02*
Y47450D01*
X15450Y32250D02*
Y47450D01*
X15350Y32250D02*
Y47450D01*
X15250Y32250D02*
Y47450D01*
X15150Y32250D02*
Y47450D01*
X15050Y32250D02*
Y47450D01*
X14950Y32250D02*
Y47450D01*
X14850Y32250D02*
Y47450D01*
X14750Y32250D02*
Y47450D01*
X14650Y32250D02*
Y47450D01*
X14550Y32250D02*
Y47450D01*
X14450Y32250D02*
Y47450D01*
X14350Y32250D02*
Y47450D01*
X14250Y32250D02*
Y47450D01*
X14150Y32250D02*
Y47450D01*
X14050Y32250D02*
Y47450D01*
X13950Y32250D02*
Y47450D01*
X13850Y32250D02*
Y47450D01*
X13750Y32250D02*
Y47450D01*
X13650Y32250D02*
Y47450D01*
X13550Y32244D02*
Y47450D01*
X13450Y32226D02*
Y47450D01*
X13350Y32195D02*
Y47450D01*
X13250Y32150D02*
Y47450D01*
X13150Y32087D02*
Y47450D01*
X13050Y32002D02*
Y47450D01*
X12950Y31902D02*
Y47450D01*
X12850Y31802D02*
Y47450D01*
X12750Y31702D02*
Y47450D01*
X12650Y31602D02*
Y47450D01*
X12550Y31502D02*
Y47450D01*
X12450Y31402D02*
Y47450D01*
X12350Y31302D02*
Y47450D01*
X12250Y31202D02*
Y47450D01*
X12150Y31152D02*
Y47450D01*
X12050Y31115D02*
Y47450D01*
X11950Y31065D02*
Y47450D01*
X11850Y30999D02*
Y47450D01*
X11750Y30914D02*
Y47450D01*
X11650Y30801D02*
Y47450D01*
X11550Y30638D02*
Y47450D01*
X11450Y30269D02*
Y47450D01*
X4250Y43951D02*
Y47450D01*
X4150Y43951D02*
Y47450D01*
X4050Y43951D02*
Y47450D01*
X3950Y43951D02*
Y47450D01*
X3850Y43951D02*
Y47450D01*
X3750Y43951D02*
Y47450D01*
X3650Y43951D02*
Y47450D01*
X3550Y43951D02*
Y47450D01*
X3450Y43951D02*
Y47450D01*
X3350Y43951D02*
Y47450D01*
X3250Y43951D02*
Y47450D01*
X3150Y43951D02*
Y47450D01*
X3050Y43951D02*
Y47450D01*
X2950Y43951D02*
Y47450D01*
X2850Y43951D02*
Y47450D01*
X4150Y38895D02*
Y41051D01*
X4050Y38920D02*
Y41051D01*
X2750Y43951D02*
Y47450D01*
X2650Y43951D02*
Y47450D01*
X3950Y38937D02*
Y41051D01*
X3850Y38948D02*
Y41051D01*
X3750Y38951D02*
Y41051D01*
X2550Y43951D02*
Y47450D01*
X2299Y43951D02*
X5199D01*
X2450D02*
Y47450D01*
X2350Y43951D02*
Y47450D01*
X550Y43900D02*
X2299D01*
Y41051D02*
X5199D01*
X550Y43800D02*
X2299D01*
X550Y43700D02*
X2299D01*
X550Y43600D02*
X2299D01*
X550Y43500D02*
X2299D01*
X550Y43400D02*
X2299D01*
X550Y43300D02*
X2299D01*
X550Y43200D02*
X2299D01*
Y41051D02*
Y43951D01*
X550Y43100D02*
X2299D01*
X550Y43000D02*
X2299D01*
X550Y42900D02*
X2299D01*
X550Y42800D02*
X2299D01*
X550Y42700D02*
X2299D01*
X550Y42600D02*
X2299D01*
X550Y42500D02*
X2299D01*
X550Y42400D02*
X2299D01*
X550Y42300D02*
X2299D01*
X550Y42200D02*
X2299D01*
X550Y42100D02*
X2299D01*
X550Y42000D02*
X2299D01*
X550Y41900D02*
X2299D01*
X550Y41800D02*
X2299D01*
X550Y41700D02*
X2299D01*
X550Y41600D02*
X2299D01*
X550Y41500D02*
X2299D01*
X550Y41400D02*
X2299D01*
X550Y41300D02*
X2299D01*
X550Y41200D02*
X2299D01*
X550Y41100D02*
X2299D01*
X3650Y38948D02*
Y41051D01*
X3550Y38938D02*
Y41051D01*
X3450Y38920D02*
Y41051D01*
X3350Y38895D02*
Y41051D01*
X4250Y38862D02*
Y41051D01*
X3250Y38863D02*
Y41051D01*
X3150Y38822D02*
Y41051D01*
X550Y38900D02*
X3366D01*
X550Y38800D02*
X3103D01*
X3050Y38772D02*
Y41051D01*
X2950Y38711D02*
Y41051D01*
X2850Y38639D02*
Y41051D01*
X2750Y38552D02*
Y41051D01*
X4350Y33821D02*
Y36182D01*
X3150Y33822D02*
Y36181D01*
X2850Y33639D02*
Y36364D01*
X2950Y33711D02*
Y36291D01*
X2750Y33552D02*
Y36450D01*
X550Y38700D02*
X2933D01*
X550Y38600D02*
X2802D01*
X550Y38500D02*
X2697D01*
X550Y36300D02*
X2937D01*
X550Y36200D02*
X3110D01*
X550Y36400D02*
X2806D01*
X2650Y38447D02*
Y41051D01*
X550Y38400D02*
X2611D01*
X2550Y38317D02*
Y41051D01*
X550Y38300D02*
X2538D01*
X2450Y38146D02*
Y41051D01*
X550Y38200D02*
X2478D01*
X2350Y37883D02*
Y41051D01*
X550Y38100D02*
X2428D01*
X550Y38000D02*
X2387D01*
X550Y37900D02*
X2355D01*
X550Y37800D02*
X2330D01*
X550Y37700D02*
X2312D01*
X550Y37600D02*
X2302D01*
X550Y37500D02*
X2299D01*
X550Y37300D02*
X2313D01*
X2650Y33447D02*
Y36556D01*
X550Y37400D02*
X2302D01*
X550Y37200D02*
X2330D01*
X2450Y33146D02*
Y36857D01*
X2550Y33317D02*
Y36686D01*
X2350Y32883D02*
Y37120D01*
X550Y36900D02*
X2429D01*
X550Y36800D02*
X2480D01*
X550Y37100D02*
X2356D01*
X550Y37000D02*
X2388D01*
X550Y36600D02*
X2613D01*
X550Y36500D02*
X2700D01*
X550Y36700D02*
X2540D01*
X20350Y33776D02*
Y34111D01*
X20250Y33562D02*
Y34132D01*
X20050Y32316D02*
Y34207D01*
X20150Y32366D02*
Y34163D01*
X19850Y32164D02*
Y34340D01*
X19950Y32250D02*
Y34265D01*
X19650Y31885D02*
Y34574D01*
X19750Y32050D02*
Y34439D01*
X4394Y33800D02*
X20365D01*
X4565Y33700D02*
X20307D01*
X4695Y33600D02*
X20263D01*
X4800Y33500D02*
X20232D01*
X4887Y33400D02*
X20211D01*
X4959Y33300D02*
X20201D01*
X5019Y33200D02*
X20200D01*
X20250Y32404D02*
Y32897D01*
X20350Y32430D02*
Y32688D01*
X18950Y32200D02*
X19888D01*
X19064Y32100D02*
X19790D01*
X19150Y32000D02*
X19715D01*
X19216Y31900D02*
X19657D01*
X19267Y31800D02*
X19613D01*
X5070Y33100D02*
X20205D01*
X5168Y32800D02*
X20288D01*
X5110Y33000D02*
X20221D01*
X5143Y32900D02*
X20249D01*
X5185Y32700D02*
X20342D01*
X18366Y32400D02*
X20237D01*
X18786Y32300D02*
X20023D01*
X5195Y32400D02*
X18334D01*
X5185Y32300D02*
X17914D01*
X13650Y32250D02*
X17823D01*
X5167Y32200D02*
X13362D01*
X12219Y31171D02*
X13049Y32001D01*
X4250Y33862D02*
Y36141D01*
X4150Y33895D02*
Y36108D01*
X4050Y33920D02*
Y36083D01*
X3950Y33937D02*
Y36065D01*
X5142Y32100D02*
X13168D01*
X5109Y32000D02*
X13048D01*
X5068Y31900D02*
X12948D01*
X19304Y31700D02*
X19582D01*
X19330Y31600D02*
X19561D01*
X19345Y31500D02*
X19551D01*
X19350Y31400D02*
X19551D01*
X19345Y31300D02*
X19561D01*
X19330Y31200D02*
X19582D01*
X19304Y31100D02*
X19613D01*
X5018Y31800D02*
X12848D01*
X4957Y31700D02*
X12748D01*
X4884Y31600D02*
X12648D01*
X4797Y31500D02*
X12548D01*
X4692Y31400D02*
X12448D01*
X4560Y31300D02*
X12348D01*
X4388Y31200D02*
X12248D01*
X19150Y30800D02*
X19790D01*
X19064Y30700D02*
X19850D01*
X18950Y30600D02*
X19850D01*
X18786Y30500D02*
X19850D01*
X13852Y30400D02*
X19850D01*
X13752Y30300D02*
X19850D01*
X13652Y30200D02*
X19850D01*
X13552Y30100D02*
X19850D01*
X13452Y30000D02*
X19850D01*
X13402Y29900D02*
X19850D01*
X13365Y29800D02*
X19850D01*
X13315Y29700D02*
X19850D01*
X13249Y29600D02*
X19850D01*
X13164Y29500D02*
X19850D01*
X13051Y29400D02*
X19850D01*
X12889Y29300D02*
X19850D01*
X12520Y29200D02*
X19850D01*
X5199Y28900D02*
X19850D01*
X5199Y28800D02*
X19850D01*
X5199Y28700D02*
X19850D01*
X5199Y28600D02*
X19850D01*
X5199Y28500D02*
X19850D01*
X5199Y28400D02*
X19850D01*
X5199Y28300D02*
X19850D01*
X5199Y28200D02*
X19850D01*
X5199Y28100D02*
X19850D01*
X5199Y28000D02*
X19850D01*
X5199Y27900D02*
X19850D01*
X5199Y27800D02*
X19850D01*
X5150Y28951D02*
Y32128D01*
X5050Y28951D02*
Y31861D01*
X4950Y28951D02*
Y31689D01*
X4850Y28951D02*
Y31558D01*
X4750Y28951D02*
Y31452D01*
X4650Y28951D02*
Y31365D01*
X4121Y31100D02*
X12017D01*
X4550Y28951D02*
Y31293D01*
X4450Y28951D02*
Y31232D01*
X4350Y28951D02*
Y31182D01*
X4250Y28951D02*
Y31141D01*
X4150Y28951D02*
Y31108D01*
X19266Y31000D02*
X19657D01*
X19216Y30900D02*
X19715D01*
X14002Y30550D02*
X17823D01*
X13952Y30500D02*
X17914D01*
X5199Y27700D02*
X19850D01*
X5199Y27600D02*
X19850D01*
X13421Y29969D02*
X14002Y30550D01*
X5199Y27500D02*
X19850D01*
X5199Y27400D02*
X19850D01*
X4050Y28951D02*
Y31083D01*
X3950Y28951D02*
Y31065D01*
X5199Y27300D02*
X19850D01*
X5199Y27200D02*
X19850D01*
X5199Y27100D02*
X19850D01*
X3850Y33948D02*
Y36055D01*
X3750Y33951D02*
Y36051D01*
X550Y36100D02*
X3377D01*
X3650Y33948D02*
Y36055D01*
X3550Y33938D02*
Y36065D01*
X3450Y33920D02*
Y36083D01*
X3350Y33895D02*
Y36107D01*
X3250Y33863D02*
Y36140D01*
X550Y36000D02*
X20064D01*
X550Y35900D02*
X19900D01*
X550Y35800D02*
X19786D01*
X550Y35700D02*
X19700D01*
X550Y35600D02*
X19634D01*
X550Y35500D02*
X19583D01*
X550Y35400D02*
X19546D01*
X550Y35300D02*
X19520D01*
X550Y35200D02*
X19505D01*
X550Y35100D02*
X19500D01*
X550Y35000D02*
X19505D01*
X550Y34800D02*
X19546D01*
X550Y34700D02*
X19584D01*
X550Y34900D02*
X19520D01*
X550Y34400D02*
X19786D01*
X550Y34300D02*
X19900D01*
X550Y34600D02*
X19634D01*
X550Y34500D02*
X19700D01*
X550Y34200D02*
X20064D01*
X550Y33900D02*
X3366D01*
X550Y31100D02*
X3377D01*
X3050Y33772D02*
Y36231D01*
X550Y33800D02*
X3103D01*
X550Y33700D02*
X2933D01*
X550Y33600D02*
X2802D01*
X550Y33500D02*
X2697D01*
X550Y33400D02*
X2611D01*
X550Y33300D02*
X2538D01*
X550Y33200D02*
X2478D01*
X550Y33100D02*
X2428D01*
X550Y33000D02*
X2387D01*
X550Y32900D02*
X2355D01*
X550Y32800D02*
X2330D01*
X550Y32700D02*
X2312D01*
X550Y32600D02*
X2302D01*
X550Y32300D02*
X2313D01*
X550Y32200D02*
X2330D01*
X550Y32500D02*
X2299D01*
X550Y32400D02*
X2302D01*
X550Y32100D02*
X2355D01*
X550Y31900D02*
X2429D01*
X550Y32000D02*
X2388D01*
X550Y31600D02*
X2613D01*
X550Y31500D02*
X2700D01*
X550Y31800D02*
X2480D01*
X550Y31700D02*
X2540D01*
X550Y31300D02*
X2937D01*
X550Y31200D02*
X3110D01*
X550Y31400D02*
X2806D01*
X550Y31000D02*
X11851D01*
X3850Y28951D02*
Y31055D01*
X3750Y28951D02*
Y31051D01*
X3650Y28951D02*
Y31055D01*
X3550Y28951D02*
Y31065D01*
X3350Y28951D02*
Y31107D01*
X3450Y28951D02*
Y31083D01*
X550Y30900D02*
X11736D01*
X550Y30800D02*
X11649D01*
X550Y30700D02*
X11583D01*
X550Y30600D02*
X11532D01*
X550Y30500D02*
X11494D01*
X550Y30400D02*
X11468D01*
X550Y30300D02*
X11452D01*
X550Y30000D02*
X11467D01*
X550Y29900D02*
X11492D01*
X550Y30200D02*
X11447D01*
X550Y30100D02*
X11452D01*
X550Y29800D02*
X11530D01*
X550Y29700D02*
X11580D01*
X2299Y28951D02*
X5199D01*
X550Y29400D02*
X11844D01*
X550Y29300D02*
X12006D01*
X550Y29600D02*
X11645D01*
X550Y29500D02*
X11730D01*
X550Y29100D02*
X19850D01*
X550Y29000D02*
X19850D01*
X550Y29200D02*
X12374D01*
X3150Y28951D02*
Y31181D01*
X3250Y28951D02*
Y31140D01*
X2950Y28951D02*
Y31291D01*
X3050Y28951D02*
Y31231D01*
X2750Y28951D02*
Y31450D01*
X2850Y28951D02*
Y31364D01*
X2650Y28951D02*
Y31556D01*
X2450Y28951D02*
Y31857D01*
X2550Y28951D02*
Y31686D01*
X2350Y28951D02*
Y32120D01*
X550Y28900D02*
X2299D01*
X550Y28800D02*
X2299D01*
X550Y28700D02*
X2299D01*
X550Y28600D02*
X2299D01*
X550Y28500D02*
X2299D01*
X550Y28400D02*
X2299D01*
X550Y28300D02*
X2299D01*
X550Y28200D02*
X2299D01*
X550Y28100D02*
X2299D01*
X550Y28000D02*
X2299D01*
X550Y27900D02*
X2299D01*
X550Y27800D02*
X2299D01*
X550Y27700D02*
X2299D01*
X550Y27600D02*
X2299D01*
X550Y27500D02*
X2299D01*
X550Y27400D02*
X2299D01*
X550Y27300D02*
X2299D01*
X550Y27200D02*
X2299D01*
X29100Y27000D02*
X40300D01*
X29100Y26900D02*
X40300D01*
X29100Y26800D02*
X40300D01*
X29100Y26700D02*
X40300D01*
X29100Y26600D02*
X40300D01*
X29100Y26500D02*
X40231D01*
X29100Y26350D02*
Y27920D01*
Y26400D02*
X40131D01*
X29098Y26300D02*
X40031D01*
X29082Y26200D02*
X39931D01*
X29050Y26100D02*
X39831D01*
X28998Y26000D02*
X39731D01*
X28919Y25900D02*
X39631D01*
X28819Y25800D02*
X39531D01*
X28719Y25700D02*
X39431D01*
X28619Y25600D02*
X32037D01*
X28519Y25500D02*
X31823D01*
X28419Y25400D02*
X31688D01*
X28319Y25300D02*
X31590D01*
X28453Y24500D02*
X31361D01*
X28219Y25200D02*
X31515D01*
X28119Y25100D02*
X31457D01*
X28019Y25000D02*
X31413D01*
X27919Y24900D02*
X31382D01*
X27819Y24800D02*
X31361D01*
X27753Y24700D02*
X31351D01*
X27753Y24600D02*
X31351D01*
X27750Y26569D02*
Y32536D01*
X27800Y26619D02*
Y28900D01*
X27650Y26469D02*
Y32536D01*
X27550Y26369D02*
Y27953D01*
X27450Y26269D02*
Y27953D01*
X27350Y26169D02*
Y27953D01*
X27250Y26069D02*
Y27953D01*
X27150Y25969D02*
Y27953D01*
X27050Y25869D02*
Y27953D01*
X26950Y25769D02*
Y27953D01*
X26850Y25669D02*
Y27953D01*
X26750Y25569D02*
Y27953D01*
X26650Y25469D02*
Y27953D01*
X26550Y25344D02*
Y27953D01*
X26450Y24553D02*
Y27953D01*
X28450Y24553D02*
Y25431D01*
X28350Y24553D02*
Y25331D01*
X28250Y24553D02*
Y25231D01*
X28150Y24553D02*
Y25131D01*
X28050Y24553D02*
Y25031D01*
X27950Y24553D02*
Y24931D01*
X27850Y24553D02*
Y24831D01*
X26644Y25463D02*
X27800Y26619D01*
X27753Y24734D02*
X28909Y25890D01*
X27753Y24553D02*
Y24734D01*
Y24553D02*
X28453D01*
X26453D02*
Y25003D01*
X28453Y24400D02*
X31382D01*
X28453Y24200D02*
X31457D01*
X29150Y17450D02*
Y27932D01*
X28453Y24300D02*
X31413D01*
X29050Y17450D02*
Y26099D01*
X28950Y17450D02*
Y25934D01*
X28850Y17450D02*
Y25831D01*
X28750Y17450D02*
Y25731D01*
X28453Y23900D02*
X31689D01*
X28453Y23800D02*
X31823D01*
X28453Y24100D02*
X31515D01*
X28453Y24000D02*
X31590D01*
X28453Y23600D02*
X42291D01*
X28453Y23500D02*
X42291D01*
X28453Y23700D02*
X32038D01*
X28453Y23400D02*
X42291D01*
X28453Y23300D02*
X42291D01*
X28453Y23200D02*
X42291D01*
X28453Y23100D02*
X42291D01*
X28453Y23000D02*
X42291D01*
X28453Y22900D02*
X42291D01*
X28453Y22800D02*
X42291D01*
X28453Y22700D02*
X42291D01*
X28453Y22600D02*
X42291D01*
X28453Y22500D02*
X42291D01*
X28453Y22400D02*
X42291D01*
X28453Y22300D02*
X42291D01*
X28453Y22200D02*
X42291D01*
X28453Y22100D02*
X42291D01*
X26350Y24553D02*
Y27953D01*
X26250Y24553D02*
Y27953D01*
X26150Y24553D02*
Y27953D01*
X26050Y24553D02*
Y27953D01*
X25950Y24553D02*
Y27953D01*
X25850Y24553D02*
Y27953D01*
X25750Y17450D02*
Y27953D01*
X25650Y17450D02*
Y27953D01*
X25550Y17450D02*
Y27953D01*
X25450Y17450D02*
Y27953D01*
X25350Y17450D02*
Y27953D01*
X25050Y17450D02*
Y47450D01*
X24950Y17450D02*
Y47450D01*
X24850Y17450D02*
Y47450D01*
X28453Y22053D02*
Y24553D01*
X25753Y22053D02*
X28453D01*
X25753Y24553D02*
X26453D01*
X25753Y22053D02*
Y24553D01*
X28650Y17450D02*
Y25631D01*
X28550Y17450D02*
Y25531D01*
X28450Y21753D02*
Y22053D01*
X25250Y17450D02*
Y27953D01*
X25150Y17450D02*
Y27953D01*
X24750Y17450D02*
Y27953D01*
X24650Y17450D02*
Y27953D01*
X24550Y17450D02*
Y27953D01*
X24450Y17450D02*
Y27953D01*
X24350Y17450D02*
Y27953D01*
X22800Y27000D02*
X27800D01*
X22800Y26900D02*
X27800D01*
X22800Y26800D02*
X27800D01*
X22800Y26700D02*
X27800D01*
X22800Y26600D02*
X27781D01*
X22800Y26500D02*
X27681D01*
X22800Y26400D02*
X27581D01*
X22800Y26300D02*
X27481D01*
X22800Y26200D02*
X27381D01*
X22800Y26100D02*
X27281D01*
X22800Y26000D02*
X27181D01*
X22800Y25900D02*
X27081D01*
X22800Y25800D02*
X26981D01*
X22800Y25700D02*
X26881D01*
X22800Y25600D02*
X26781D01*
X22800Y25500D02*
X26681D01*
X22800Y25400D02*
X26588D01*
X22800Y25300D02*
X26525D01*
X22800Y25200D02*
X26484D01*
X22800Y25100D02*
X26460D01*
X22800Y25000D02*
X26453D01*
X22800Y24900D02*
X26453D01*
X22800Y24800D02*
X26453D01*
X22800Y24700D02*
X26453D01*
X22800Y24600D02*
X26453D01*
X22800Y24500D02*
X25753D01*
X22800Y24400D02*
X25753D01*
X22800Y24300D02*
X25753D01*
X22800Y24200D02*
X25753D01*
X5199Y27000D02*
X19850D01*
X5199Y26900D02*
X19850D01*
X5199Y26800D02*
X19850D01*
X5199Y26700D02*
X19850D01*
X5199Y26600D02*
X19850D01*
X5199Y26500D02*
X19850D01*
X5199Y26400D02*
X19850D01*
X5199Y26300D02*
X19850D01*
X5199Y26200D02*
X19850D01*
X5199Y26100D02*
X19850D01*
X550Y26000D02*
X19850D01*
X550Y25900D02*
X19850D01*
X550Y25800D02*
X19850D01*
X550Y25700D02*
X19850D01*
X550Y25600D02*
X19850D01*
X550Y25500D02*
X19850D01*
X550Y25400D02*
X19850D01*
X550Y25300D02*
X19850D01*
X550Y25200D02*
X19850D01*
X550Y25100D02*
X19850D01*
X550Y25000D02*
X19850D01*
X550Y24900D02*
X19850D01*
X550Y24800D02*
X19850D01*
X550Y24700D02*
X19850D01*
X550Y24600D02*
X19850D01*
X550Y24500D02*
X19850D01*
X550Y24400D02*
X19850D01*
X550Y24300D02*
X19850D01*
X24250Y17450D02*
Y27953D01*
X24150Y17450D02*
Y27953D01*
X23650Y17494D02*
Y27953D01*
X23550Y17594D02*
Y27953D01*
X24050Y17450D02*
Y27953D01*
X23950Y17450D02*
Y27953D01*
X23850Y17450D02*
Y27953D01*
X23750Y17450D02*
Y27953D01*
X22800Y24100D02*
X25753D01*
X22800Y24000D02*
X25753D01*
X22800Y23900D02*
X25753D01*
X22800Y23800D02*
X25753D01*
X22800Y23700D02*
X25753D01*
X22800Y23600D02*
X25753D01*
X23450Y17694D02*
Y27953D01*
X22800Y23500D02*
X25753D01*
X22800Y23400D02*
X25753D01*
X22800Y23300D02*
X25753D01*
X22800Y23200D02*
X25753D01*
X22800Y23100D02*
X25753D01*
X22800Y23000D02*
X25753D01*
X22800Y22900D02*
X25753D01*
X22800Y22800D02*
X25753D01*
X22800Y22700D02*
X25753D01*
X22800Y22600D02*
X25753D01*
X22800Y22500D02*
X25753D01*
X22800Y22400D02*
X25753D01*
X22800Y22300D02*
X25753D01*
X22800Y22200D02*
X25753D01*
X23050Y18094D02*
Y27953D01*
X22950Y18194D02*
Y27953D01*
X22800Y18344D02*
Y27953D01*
X22850Y18294D02*
Y27953D01*
X23350Y17794D02*
Y27953D01*
X23250Y17894D02*
Y27953D01*
X23150Y17994D02*
Y27953D01*
X550Y24200D02*
X19850D01*
X550Y24100D02*
X19850D01*
X550Y24000D02*
X19850D01*
X4132Y23900D02*
X19850D01*
X4394Y23800D02*
X19850D01*
X4565Y23700D02*
X19850D01*
X4695Y23600D02*
X19850D01*
X5110Y23000D02*
X19850D01*
X5143Y22900D02*
X19850D01*
X5168Y22800D02*
X19850D01*
X5185Y22700D02*
X19850D01*
X5195Y22600D02*
X19850D01*
X5199Y22500D02*
X19850D01*
X5195Y22400D02*
X19850D01*
X4800Y23500D02*
X19850D01*
X4887Y23400D02*
X19850D01*
X4959Y23300D02*
X19850D01*
X5019Y23200D02*
X19850D01*
X5070Y23100D02*
X19850D01*
X5185Y22300D02*
X19850D01*
X5167Y22200D02*
X19850D01*
X28453Y21700D02*
X42291D01*
X28453Y21600D02*
X42291D01*
X28453Y21500D02*
X42291D01*
X28453Y21400D02*
X42291D01*
X28453Y21300D02*
X42291D01*
X28453Y21200D02*
X42291D01*
X28453Y21100D02*
X42291D01*
X28453Y21000D02*
X42291D01*
X28453Y20900D02*
X42291D01*
X28453Y20800D02*
X42291D01*
X28453Y20700D02*
X42291D01*
X28453Y20600D02*
X42291D01*
X28453Y20500D02*
X42291D01*
X28453Y20400D02*
X42291D01*
X28453Y20300D02*
X42291D01*
X28453Y20200D02*
X42291D01*
X28453Y20100D02*
X42291D01*
X28453Y20000D02*
X42291D01*
X29150Y17400D02*
X42291D01*
X29150Y17300D02*
X42291D01*
X29150Y17200D02*
X42291D01*
X29150Y17100D02*
X42291D01*
X28453Y19900D02*
X42291D01*
X28453Y19800D02*
X42291D01*
X28453Y19700D02*
X42291D01*
X28453Y19600D02*
X42291D01*
X28453Y19500D02*
X42291D01*
X28453Y19400D02*
X42291D01*
X28453Y19300D02*
X42291D01*
X28350Y21753D02*
Y22053D01*
X28453Y19253D02*
Y21753D01*
X28250D02*
Y22053D01*
X28150Y21753D02*
Y22053D01*
X28450Y17450D02*
Y19253D01*
X28350Y17450D02*
Y19253D01*
X28250Y17450D02*
Y19253D01*
X28150Y17450D02*
Y19253D01*
X28050Y21753D02*
Y22053D01*
X27950Y21753D02*
Y22053D01*
X27850Y21753D02*
Y22053D01*
X27750Y21753D02*
Y22053D01*
X27650Y21753D02*
Y22053D01*
X28050Y17450D02*
Y19253D01*
X27550Y21753D02*
Y22053D01*
X29150Y17000D02*
X42291D01*
X29150Y16900D02*
X42291D01*
X29150Y16800D02*
X42291D01*
X29150Y16700D02*
X42291D01*
X29150Y16600D02*
X42291D01*
X29150Y16500D02*
X42291D01*
X29150Y16400D02*
X42291D01*
X27950Y17450D02*
Y19253D01*
X27850Y17450D02*
Y19253D01*
X27750Y17450D02*
Y19253D01*
X27650Y17450D02*
Y19253D01*
X29150Y16300D02*
X42291D01*
X29150Y16200D02*
X42291D01*
X27550Y17450D02*
Y19253D01*
X29150Y16100D02*
X42291D01*
X29150Y16000D02*
X42291D01*
X29150Y15900D02*
X42291D01*
X29150Y15800D02*
X42291D01*
X29150Y15700D02*
X42291D01*
X29150Y15600D02*
X42291D01*
X29150Y15500D02*
X42291D01*
X29150Y15400D02*
X42291D01*
X29150Y15300D02*
X42291D01*
X29150Y15200D02*
X42291D01*
X29150Y15100D02*
X42291D01*
X29150Y15000D02*
X42291D01*
X29150Y14900D02*
X42291D01*
X29150Y14800D02*
X42291D01*
X29150Y14700D02*
X42291D01*
X29150Y14600D02*
X42291D01*
X29150Y14500D02*
X42291D01*
X29150Y14400D02*
X42291D01*
X29150Y14300D02*
X42291D01*
X29150Y14200D02*
X42291D01*
X29150Y14100D02*
X42291D01*
X29150Y14000D02*
X42291D01*
X29150Y13900D02*
X42291D01*
X29150Y13800D02*
X42291D01*
X29150Y13700D02*
X42291D01*
X29150Y13600D02*
X42291D01*
X29150Y13500D02*
X41941D01*
X29150Y550D02*
X44600D01*
X29150Y13400D02*
X41941D01*
X29150Y13300D02*
X41941D01*
X29150Y13200D02*
X41941D01*
X29150Y13100D02*
X41941D01*
X29150Y13000D02*
X41941D01*
X29150Y12900D02*
X41941D01*
X29150Y12800D02*
X41941D01*
X29150Y550D02*
Y17450D01*
Y12700D02*
X41941D01*
X29150Y12600D02*
X41941D01*
X29150Y12500D02*
X41941D01*
X29150Y12400D02*
X41941D01*
X29150Y12300D02*
X41941D01*
X29150Y12200D02*
X41941D01*
X29150Y12100D02*
X41941D01*
X29150Y12000D02*
X41941D01*
X29150Y11900D02*
X41941D01*
X29150Y11800D02*
X41941D01*
X29150Y11700D02*
X41941D01*
X29150Y11600D02*
X41941D01*
X29150Y11500D02*
X41941D01*
X29150Y11400D02*
X41941D01*
X29150Y11300D02*
X40287D01*
X29150Y11200D02*
X39864D01*
X29150Y11100D02*
X39700D01*
X29150Y11000D02*
X39586D01*
X29150Y10900D02*
X39500D01*
X29150Y10800D02*
X39434D01*
X29150Y10700D02*
X39383D01*
X27450Y21753D02*
Y22053D01*
X27350Y21753D02*
Y22053D01*
X27250Y21753D02*
Y22053D01*
X27150Y21753D02*
Y22053D01*
X27050Y21753D02*
Y22053D01*
X26950Y21753D02*
Y22053D01*
X26850Y21753D02*
Y22053D01*
X26750Y21753D02*
Y22053D01*
X26650Y21753D02*
Y22053D01*
X26550Y21753D02*
Y22053D01*
X26450Y21753D02*
Y22053D01*
X26350Y21753D02*
Y22053D01*
X26250Y21753D02*
Y22053D01*
X26150Y21753D02*
Y22053D01*
X26050Y21753D02*
Y22053D01*
X25950Y21753D02*
Y22053D01*
X25753Y21753D02*
X28453D01*
X25850D02*
Y22053D01*
X22800Y22100D02*
X25753D01*
X22800Y22000D02*
X42291D01*
X22800Y21900D02*
X42291D01*
X22800Y21800D02*
X42291D01*
X22800Y21700D02*
X25753D01*
X22800Y21600D02*
X25753D01*
X22800Y21500D02*
X25753D01*
X22800Y21400D02*
X25753D01*
X5142Y22100D02*
X19850D01*
X5109Y22000D02*
X19850D01*
X5068Y21900D02*
X19850D01*
X5018Y21800D02*
X19850D01*
X22800Y21300D02*
X25753D01*
X22800Y21200D02*
X25753D01*
X22800Y21100D02*
X25753D01*
X4957Y21700D02*
X19850D01*
X4884Y21600D02*
X19850D01*
X4797Y21500D02*
X19850D01*
X4692Y21400D02*
X19850D01*
X4561Y21300D02*
X19850D01*
X4388Y21200D02*
X19850D01*
X4121Y21100D02*
X19850D01*
X22800Y21000D02*
X25753D01*
X22800Y20900D02*
X25753D01*
X22800Y20800D02*
X25753D01*
X22800Y20700D02*
X25753D01*
X22800Y20600D02*
X25753D01*
X22800Y20500D02*
X25753D01*
X22800Y20400D02*
X25753D01*
X550Y21000D02*
X19850D01*
X550Y20900D02*
X19850D01*
X550Y20800D02*
X19850D01*
X550Y20700D02*
X19850D01*
X550Y20600D02*
X19850D01*
X550Y20500D02*
X19850D01*
X550Y20400D02*
X19850D01*
X27450Y17450D02*
Y19253D01*
X27350Y17450D02*
Y19253D01*
X27250Y17450D02*
Y19253D01*
X27150Y17450D02*
Y19253D01*
X27050Y17450D02*
Y19253D01*
X26950Y17450D02*
Y19253D01*
X26850Y17450D02*
Y19253D01*
X22800Y19200D02*
X42291D01*
X22800Y19100D02*
X42291D01*
X25753Y19253D02*
X28453D01*
X22800Y19000D02*
X42291D01*
X22800Y18900D02*
X42291D01*
X22800Y18800D02*
X42291D01*
X26750Y17450D02*
Y19253D01*
X23144Y18000D02*
X42291D01*
X23244Y17900D02*
X42291D01*
X23344Y17800D02*
X42291D01*
X23444Y17700D02*
X42291D01*
X23544Y17600D02*
X42291D01*
X23644Y17500D02*
X42291D01*
X23693Y17450D02*
X29150D01*
X22800Y18700D02*
X42291D01*
X22800Y18600D02*
X42291D01*
X22800Y18500D02*
X42291D01*
X22800Y18400D02*
X42291D01*
X22844Y18300D02*
X42291D01*
X22944Y18200D02*
X42291D01*
X23044Y18100D02*
X42291D01*
X22800Y20300D02*
X25753D01*
X22800Y20200D02*
X25753D01*
X22800Y20100D02*
X25753D01*
X22800Y20000D02*
X25753D01*
X22800Y19900D02*
X25753D01*
X22800Y19800D02*
X25753D01*
Y19253D02*
Y21753D01*
X550Y20300D02*
X19850D01*
X550Y20200D02*
X19850D01*
X550Y20100D02*
X19850D01*
X550Y20000D02*
X19850D01*
X550Y19900D02*
X19850D01*
X22800Y19700D02*
X25753D01*
X550Y19800D02*
X19850D01*
X26650Y17450D02*
Y19253D01*
X26550Y17450D02*
Y19253D01*
X26450Y17450D02*
Y19253D01*
X26350Y17450D02*
Y19253D01*
X26250Y17450D02*
Y19253D01*
X26150Y17450D02*
Y19253D01*
X26050Y17450D02*
Y19253D01*
X22800Y19600D02*
X25753D01*
X22800Y19500D02*
X25753D01*
X22800Y19400D02*
X25753D01*
X22800Y19300D02*
X25753D01*
X25950Y17450D02*
Y19253D01*
X25850Y17450D02*
Y19253D01*
X22800Y18344D02*
X23693Y17450D01*
X19850D02*
Y30736D01*
X19850Y17450D02*
Y30736D01*
X19650Y17450D02*
Y31015D01*
X19750Y17450D02*
Y30850D01*
X19450Y17450D02*
Y47450D01*
X19550Y17450D02*
Y34788D01*
X19350Y17450D02*
Y31378D01*
X19250Y17450D02*
Y30964D01*
X19150Y17450D02*
Y30800D01*
X19050Y17450D02*
Y30686D01*
X18950Y17450D02*
Y30600D01*
X18850Y17450D02*
Y30534D01*
X17850Y17450D02*
Y30534D01*
X17750Y17450D02*
Y30550D01*
X17650Y17450D02*
Y30550D01*
X18750Y17450D02*
Y30483D01*
X18650Y17450D02*
Y30446D01*
X18550Y17450D02*
Y30420D01*
X18450Y17450D02*
Y30405D01*
X18350Y17450D02*
Y30400D01*
X18250Y17450D02*
Y30405D01*
X18150Y17450D02*
Y30420D01*
X18050Y17450D02*
Y30446D01*
X17950Y17450D02*
Y30484D01*
X17550Y17450D02*
Y30550D01*
X17450Y17450D02*
Y30550D01*
X17350Y17450D02*
Y30550D01*
X17250Y17450D02*
Y30550D01*
X17150Y17450D02*
Y30550D01*
X17050Y17450D02*
Y30550D01*
X16950Y17450D02*
Y30550D01*
X16850Y17450D02*
Y30550D01*
X16750Y17450D02*
Y30550D01*
X16650Y17450D02*
Y30550D01*
X16550Y17450D02*
Y30550D01*
X16450Y17450D02*
Y30550D01*
X16350Y17450D02*
Y30550D01*
X16250Y17450D02*
Y30550D01*
X16150Y17450D02*
Y30550D01*
X16050Y17450D02*
Y30550D01*
X15950Y17450D02*
Y30550D01*
X15850Y17450D02*
Y30550D01*
X15750Y17450D02*
Y30550D01*
X15650Y17450D02*
Y30550D01*
X15550Y17450D02*
Y30550D01*
X15450Y17450D02*
Y30550D01*
X15350Y17450D02*
Y30550D01*
X15250Y17450D02*
Y30550D01*
X15150Y17450D02*
Y30550D01*
X15050Y17450D02*
Y30550D01*
X14950Y17450D02*
Y30550D01*
X14850Y17450D02*
Y30550D01*
X14750Y17450D02*
Y30550D01*
X14650Y17450D02*
Y30550D01*
X14550Y17450D02*
Y30550D01*
X14450Y17450D02*
Y30550D01*
X14350Y17450D02*
Y30550D01*
X14250Y17450D02*
Y30550D01*
X14150Y17450D02*
Y30550D01*
X14050Y17450D02*
Y30550D01*
X13950Y17450D02*
Y30498D01*
X13850Y17450D02*
Y30398D01*
X13750Y17450D02*
Y30298D01*
X13650Y17450D02*
Y30198D01*
X13550Y17450D02*
Y30098D01*
X13450Y17450D02*
Y29998D01*
X13350Y17450D02*
Y29767D01*
X13250Y17450D02*
Y29601D01*
X11650Y17450D02*
Y29594D01*
X13150Y17450D02*
Y29486D01*
X11450Y17450D02*
Y30125D01*
X11550Y17450D02*
Y29756D01*
X11350Y17450D02*
Y47450D01*
X13050Y17450D02*
Y29399D01*
X12950Y17450D02*
Y29333D01*
X12850Y17450D02*
Y29282D01*
X12750Y17450D02*
Y29244D01*
X12650Y17450D02*
Y29218D01*
X12550Y17450D02*
Y29202D01*
X12450Y17450D02*
Y29197D01*
X12350Y17450D02*
Y29202D01*
X12250Y17450D02*
Y29217D01*
X12050Y17450D02*
Y29280D01*
X12150Y17450D02*
Y29242D01*
X11850Y17450D02*
Y29395D01*
X11950Y17450D02*
Y29330D01*
X11750Y17450D02*
Y29481D01*
X11250Y17450D02*
Y47450D01*
X11150Y17450D02*
Y47450D01*
X11050Y17450D02*
Y47450D01*
X10950Y17450D02*
Y47450D01*
X10850Y17450D02*
Y47450D01*
X10750Y17450D02*
Y47450D01*
X10650Y17450D02*
Y47450D01*
X10550Y17450D02*
Y47450D01*
X10450Y17450D02*
Y47450D01*
X10350Y14300D02*
Y47450D01*
X10250Y14200D02*
Y47450D01*
X10150Y14100D02*
Y47450D01*
X10050Y14000D02*
Y47450D01*
X9950Y13900D02*
Y47450D01*
X9850Y13800D02*
Y47450D01*
X9750Y13700D02*
Y47450D01*
X9650Y13600D02*
Y47450D01*
X9550Y13500D02*
Y47450D01*
X9450Y13400D02*
Y47450D01*
X9350Y13300D02*
Y47450D01*
X9250Y13200D02*
Y47450D01*
X9150Y13100D02*
Y47450D01*
X9050Y13000D02*
Y47450D01*
X8950Y12900D02*
Y47450D01*
X8850Y12800D02*
Y47450D01*
X8750Y12700D02*
Y47450D01*
X8650Y12600D02*
Y47450D01*
X8550Y12500D02*
Y47450D01*
X5199Y26051D02*
Y28951D01*
X4750Y23550D02*
Y26051D01*
X4650Y23638D02*
Y26051D01*
X4550Y23710D02*
Y26051D01*
X5150Y22875D02*
Y26051D01*
X5050Y23142D02*
Y26051D01*
X4950Y23314D02*
Y26051D01*
X4850Y23445D02*
Y26051D01*
X2299D02*
X5199D01*
X4350Y23821D02*
Y26051D01*
X4050Y23920D02*
Y26051D01*
X3950Y23937D02*
Y26051D01*
X4450Y23771D02*
Y26051D01*
X4250Y23862D02*
Y26051D01*
X4150Y23895D02*
Y26051D01*
X3850Y23948D02*
Y26051D01*
X3750Y23951D02*
Y26051D01*
X3650Y23948D02*
Y26051D01*
X3550Y23938D02*
Y26051D01*
X3450Y23920D02*
Y26051D01*
X3350Y23895D02*
Y26051D01*
X3250Y23863D02*
Y26051D01*
X3150Y23822D02*
Y26051D01*
X550Y23900D02*
X3366D01*
X3050Y23772D02*
Y26051D01*
X550Y23800D02*
X3103D01*
X2950Y23711D02*
Y26051D01*
X550Y23700D02*
X2933D01*
X2850Y23639D02*
Y26051D01*
X550Y27100D02*
X2299D01*
X550Y27000D02*
X2299D01*
X550Y26900D02*
X2299D01*
X550Y26800D02*
X2299D01*
X2750Y23552D02*
Y26051D01*
X2650Y23447D02*
Y26051D01*
X2299D02*
Y28951D01*
X550Y26700D02*
X2299D01*
X550Y26600D02*
X2299D01*
X550Y26500D02*
X2299D01*
X550Y26400D02*
X2299D01*
X550Y26300D02*
X2299D01*
X550Y26200D02*
X2299D01*
X550Y26100D02*
X2299D01*
X550Y23600D02*
X2802D01*
X550Y23500D02*
X2697D01*
X2550Y23317D02*
Y26051D01*
X550Y23400D02*
X2611D01*
X2450Y23146D02*
Y26051D01*
X550Y23300D02*
X2538D01*
X2350Y22883D02*
Y26051D01*
X550Y23200D02*
X2478D01*
X550Y23100D02*
X2428D01*
X550Y23000D02*
X2387D01*
X550Y22900D02*
X2355D01*
X550Y22800D02*
X2330D01*
X550Y22700D02*
X2312D01*
X550Y22600D02*
X2302D01*
X8450Y12400D02*
Y47450D01*
X8350Y12300D02*
Y47450D01*
X8250Y12200D02*
Y47450D01*
X8150Y12100D02*
Y47450D01*
X8050Y12000D02*
Y47450D01*
X7950Y11900D02*
Y47450D01*
X7850Y11800D02*
Y47450D01*
X7750Y11700D02*
Y47450D01*
X7650Y11600D02*
Y47450D01*
X7550Y11500D02*
Y47450D01*
X7450Y11400D02*
Y47450D01*
X7350Y11300D02*
Y47450D01*
X7250Y11200D02*
Y47450D01*
X7150Y11100D02*
Y47450D01*
X7050Y11100D02*
Y47450D01*
X6950Y11100D02*
Y47450D01*
X6850Y11100D02*
Y47450D01*
X6750Y11100D02*
Y47450D01*
X6650Y11100D02*
Y47450D01*
X6550Y11100D02*
Y47450D01*
X6450Y11100D02*
Y47450D01*
X6350Y11100D02*
Y47450D01*
X6250Y11100D02*
Y47450D01*
X6150Y11100D02*
Y47450D01*
X6050Y11100D02*
Y47450D01*
X5950Y11100D02*
Y47450D01*
X5850Y11100D02*
Y47450D01*
X5750Y11100D02*
Y47450D01*
X5650Y11100D02*
Y47450D01*
X5550Y11100D02*
Y47450D01*
X5450Y11100D02*
Y47450D01*
X5350Y11100D02*
Y47450D01*
X5250Y11100D02*
Y47450D01*
X2250Y11100D02*
Y47450D01*
X2150Y11100D02*
Y47450D01*
X2050Y11100D02*
Y47450D01*
X1950Y11100D02*
Y47450D01*
X1850Y11100D02*
Y47450D01*
X1750Y11100D02*
Y47450D01*
X1650Y11100D02*
Y47450D01*
X1550Y11100D02*
Y47450D01*
X1450Y11100D02*
Y47450D01*
X1350Y11100D02*
Y47450D01*
X1250Y11100D02*
Y47450D01*
X1150Y11100D02*
Y47450D01*
X1050Y11100D02*
Y47450D01*
X550Y22500D02*
X2299D01*
X950Y11100D02*
Y47450D01*
X850Y11100D02*
Y47450D01*
X750Y11100D02*
Y47450D01*
X650Y11100D02*
Y47450D01*
X550Y11100D02*
Y47450D01*
X5019Y18200D02*
X19850D01*
X5070Y18100D02*
X19850D01*
X5110Y18000D02*
X19850D01*
X5143Y17900D02*
X19850D01*
X5168Y17800D02*
X19850D01*
X5185Y17700D02*
X19850D01*
X5195Y17600D02*
X19850D01*
X5199Y17500D02*
X19850D01*
X4132Y18900D02*
X19850D01*
X4394Y18800D02*
X19850D01*
X4565Y18700D02*
X19850D01*
X4695Y18600D02*
X19850D01*
X4800Y18500D02*
X19850D01*
X4887Y18400D02*
X19850D01*
X4959Y18300D02*
X19850D01*
X10350Y17450D02*
X19850D01*
X5195Y17400D02*
X10350D01*
X5185Y17300D02*
X10350D01*
X5167Y17200D02*
X10350D01*
X5142Y17100D02*
X10350D01*
X5109Y17000D02*
X10350D01*
X5068Y16900D02*
X10350D01*
X5018Y16800D02*
X10350D01*
X4957Y16700D02*
X10350D01*
X4885Y16600D02*
X10350D01*
X4797Y16500D02*
X10350D01*
X4692Y16400D02*
X10350D01*
X4561Y16300D02*
X10350D01*
X4388Y16200D02*
X10350D01*
X4850Y18445D02*
Y21558D01*
X4750Y18550D02*
Y21452D01*
X4650Y18637D02*
Y21365D01*
X4550Y18710D02*
Y21293D01*
X5150Y17875D02*
Y22128D01*
X5050Y18142D02*
Y21861D01*
X4950Y18314D02*
Y21689D01*
X4450Y18771D02*
Y21232D01*
X4350Y18821D02*
Y21182D01*
X3050Y18772D02*
Y21231D01*
X4250Y18862D02*
Y21141D01*
X2850Y18639D02*
Y21364D01*
X2950Y18711D02*
Y21291D01*
X2750Y18552D02*
Y21450D01*
X4150Y18895D02*
Y21108D01*
X4050Y18920D02*
Y21083D01*
X3950Y18937D02*
Y21065D01*
X3850Y18948D02*
Y21055D01*
X10350Y14300D02*
Y17450D01*
X4121Y16100D02*
X10350D01*
X5150Y13951D02*
Y17128D01*
X3750Y18951D02*
Y21051D01*
X3650Y18948D02*
Y21055D01*
X3550Y18938D02*
Y21065D01*
X3450Y18920D02*
Y21083D01*
X3350Y18895D02*
Y21107D01*
X3250Y18863D02*
Y21140D01*
X3150Y18822D02*
Y21181D01*
X5199Y13900D02*
X9950D01*
X5199Y13800D02*
X9850D01*
X5199Y13700D02*
X9750D01*
X5199Y13600D02*
X9650D01*
X7550Y11500D02*
X10350Y14300D01*
X5199Y13500D02*
X9550D01*
X5199Y13400D02*
X9450D01*
X5199Y13300D02*
X9350D01*
X5199Y13200D02*
X9250D01*
X5199Y13100D02*
X9150D01*
X5199Y13000D02*
X9050D01*
X5199Y12900D02*
X8950D01*
X5199Y12800D02*
X8850D01*
X5199Y12700D02*
X8750D01*
X5199Y12600D02*
X8650D01*
X5199Y12500D02*
X8550D01*
X5199Y12400D02*
X8450D01*
X5199Y12300D02*
X8350D01*
X5199Y12200D02*
X8250D01*
X5199Y12100D02*
X8150D01*
X5199Y12000D02*
X8050D01*
X7150Y11100D02*
X7550Y11500D01*
X5199Y11900D02*
X7950D01*
X5199Y11800D02*
X7850D01*
X5199Y11700D02*
X7750D01*
X5199Y11600D02*
X7650D01*
X5199Y11500D02*
X7550D01*
X5199Y11400D02*
X7450D01*
X5199Y11300D02*
X7350D01*
X5050Y13951D02*
Y16861D01*
X4950Y13951D02*
Y16689D01*
X4850Y13951D02*
Y16558D01*
X4750Y13951D02*
Y16452D01*
X4650Y13951D02*
Y16365D01*
X4550Y13951D02*
Y16293D01*
X4450Y13951D02*
Y16232D01*
X4350Y13951D02*
Y16182D01*
X4250Y13951D02*
Y16141D01*
X3250Y13951D02*
Y16140D01*
X3150Y13951D02*
Y16181D01*
X2950Y13951D02*
Y16291D01*
X3050Y13951D02*
Y16231D01*
X2850Y13951D02*
Y16364D01*
X4150Y13951D02*
Y16108D01*
X4050Y13951D02*
Y16083D01*
X3950Y13951D02*
Y16065D01*
X3850Y13951D02*
Y16055D01*
X5199Y11200D02*
X7250D01*
X5199Y11100D02*
X7150D01*
X5199D02*
Y13951D01*
X3750D02*
Y16051D01*
X3650Y13951D02*
Y16055D01*
X3550Y13951D02*
Y16065D01*
X3450Y13951D02*
Y16083D01*
X3350Y13951D02*
Y16107D01*
X550Y21400D02*
X2806D01*
X550Y21300D02*
X2937D01*
X550Y21600D02*
X2613D01*
X550Y21500D02*
X2700D01*
X550Y21100D02*
X3377D01*
X550Y19700D02*
X19850D01*
X2650Y18447D02*
Y21556D01*
X550Y21200D02*
X3110D01*
X550Y19600D02*
X19850D01*
X550Y19500D02*
X19850D01*
X550Y19400D02*
X19850D01*
X550Y19300D02*
X19850D01*
X550Y19200D02*
X19850D01*
X550Y19100D02*
X19850D01*
X550Y19000D02*
X19850D01*
X550Y18900D02*
X3366D01*
X550Y18800D02*
X3104D01*
X550Y18700D02*
X2933D01*
X550Y18600D02*
X2802D01*
X550Y18500D02*
X2697D01*
X550Y18400D02*
X2611D01*
X550Y16400D02*
X2806D01*
X550Y16300D02*
X2937D01*
X550Y16600D02*
X2613D01*
X550Y16500D02*
X2700D01*
X550Y16100D02*
X3377D01*
X550Y16000D02*
X10350D01*
X550Y16200D02*
X3110D01*
X550Y22300D02*
X2313D01*
X550Y22200D02*
X2330D01*
X550Y22400D02*
X2302D01*
X550Y22100D02*
X2355D01*
X2450Y18146D02*
Y21857D01*
X2550Y18317D02*
Y21686D01*
X2350Y17883D02*
Y22120D01*
X550Y21800D02*
X2480D01*
X550Y21700D02*
X2540D01*
X550Y22000D02*
X2388D01*
X550Y21900D02*
X2429D01*
X550Y18300D02*
X2538D01*
X550Y18200D02*
X2478D01*
X550Y18100D02*
X2428D01*
X550Y18000D02*
X2387D01*
X550Y17900D02*
X2355D01*
X550Y17800D02*
X2330D01*
X550Y17700D02*
X2312D01*
X550Y17600D02*
X2302D01*
X550Y17500D02*
X2299D01*
X550Y17400D02*
X2302D01*
X550Y17300D02*
X2313D01*
X550Y17200D02*
X2330D01*
X550Y17100D02*
X2355D01*
X550Y17000D02*
X2388D01*
X550Y16800D02*
X2480D01*
X550Y16700D02*
X2540D01*
X550Y16900D02*
X2429D01*
X550Y15900D02*
X10350D01*
X550Y15800D02*
X10350D01*
X2750Y13951D02*
Y16450D01*
X550Y15700D02*
X10350D01*
X2550Y13951D02*
Y16686D01*
X2650Y13951D02*
Y16556D01*
X2350Y13951D02*
Y17120D01*
X2450Y13951D02*
Y16857D01*
X550Y15600D02*
X10350D01*
X550Y15500D02*
X10350D01*
X550Y15400D02*
X10350D01*
X550Y15300D02*
X10350D01*
X550Y15200D02*
X10350D01*
X550Y15100D02*
X10350D01*
X550Y15000D02*
X10350D01*
X550Y14900D02*
X10350D01*
X550Y14800D02*
X10350D01*
X550Y14700D02*
X10350D01*
X550Y14600D02*
X10350D01*
X550Y14500D02*
X10350D01*
X2299Y13951D02*
X5199D01*
X550Y14400D02*
X10350D01*
X550Y14300D02*
X10350D01*
X550Y14200D02*
X10250D01*
X550Y14100D02*
X10150D01*
X550Y14000D02*
X10050D01*
X550Y13900D02*
X2299D01*
X550Y13800D02*
X2299D01*
X550Y13700D02*
X2299D01*
X550Y13600D02*
X2299D01*
X550Y13500D02*
X2299D01*
X550Y13400D02*
X2299D01*
X550Y13300D02*
X2299D01*
X550Y13200D02*
X2299D01*
Y11100D02*
Y13951D01*
X550Y13100D02*
X2299D01*
X550Y13000D02*
X2299D01*
X550Y12900D02*
X2299D01*
X550Y12800D02*
X2299D01*
X550Y12700D02*
X2299D01*
X550Y12600D02*
X2299D01*
X550Y12500D02*
X2299D01*
X550Y12400D02*
X2299D01*
X550Y12300D02*
X2299D01*
X550Y12200D02*
X2299D01*
X550Y12100D02*
X2299D01*
X550Y12000D02*
X2299D01*
X550Y11900D02*
X2299D01*
X550Y11800D02*
X2299D01*
X550Y11700D02*
X2299D01*
X550Y11600D02*
X2299D01*
X550Y11500D02*
X2299D01*
X550Y11400D02*
X2299D01*
X550Y11300D02*
X2299D01*
X550Y11200D02*
X2299D01*
X550Y11100D02*
X2299D01*
X34605Y41795D02*
X37055D01*
X30950Y44300D02*
X30985Y44335D01*
X30950Y43300D02*
Y44300D01*
X34615D02*
X34650Y44335D01*
X34600Y44315D02*
X34615Y44300D01*
X37557Y44393D02*
X40792D01*
X40735Y44335D02*
X40792Y44393D01*
X39850Y44335D02*
X40735D01*
X34550Y41850D02*
X34605Y41795D01*
X38205Y45605D02*
X39850D01*
X37485Y43065D02*
X37500Y43050D01*
X38200Y45600D02*
X38205Y45605D01*
X37850Y41000D02*
X39300D01*
X39900Y40400D01*
X32800Y44400D02*
Y45550D01*
X34585Y44315D02*
X34600D01*
X32800Y45550D02*
X32855Y45605D01*
X37055Y41795D02*
X37850Y41000D01*
X32300Y44300D02*
X33250D01*
D11*
X28459Y33886D02*
D03*
X31259Y33886D02*
D03*
X36053Y34297D02*
D03*
X38853Y34297D02*
D03*
X26397Y29303D02*
D03*
X23597Y29303D02*
D03*
D14*
X27103Y20503D02*
D03*
X27103Y23303D02*
D03*
D25*
X41250Y33400D02*
Y35450D01*
Y30850D02*
Y33400D01*
X39650Y36400D02*
X40300D01*
X33750D02*
X39650D01*
X43159Y26892D02*
Y28941D01*
X43141Y26873D02*
X43159Y26892D01*
X43141Y12308D02*
Y26873D01*
X30950Y40100D02*
X31000D01*
X28350D02*
X30950D01*
X31825Y39225D02*
X32400Y38650D01*
X30950Y40100D02*
X31750Y39300D01*
X13650Y31400D02*
X18350D01*
X12447Y30197D02*
X13650Y31400D01*
X32400Y37750D02*
Y38650D01*
Y37750D02*
X33750Y36400D01*
X40300D02*
X41250Y35450D01*
Y30850D02*
X43159Y28941D01*
X31750Y39300D02*
X31825Y39225D01*
D26*
X39400Y33400D02*
X41250D01*
X39200Y33200D02*
X39400Y33400D01*
X28350Y40100D02*
X28376Y40074D01*
X28400Y29400D02*
X28450Y29350D01*
X28900Y28900D01*
X28400Y33886D02*
Y40050D01*
Y29400D02*
Y33886D01*
X28450Y29350D02*
Y29450D01*
Y28900D02*
Y29350D01*
Y26350D02*
Y28900D01*
X27103Y23303D02*
Y25003D01*
X40950Y26300D02*
Y28000D01*
X32350Y24650D02*
X39300D01*
X43200Y34512D02*
Y35150D01*
Y34400D02*
Y34512D01*
X34350Y37750D02*
X40600D01*
X43159Y37052D02*
Y38102D01*
Y37052D02*
X44209D01*
X40850Y41795D02*
X43250D01*
X40850Y41195D02*
Y41795D01*
X38450D02*
X40850D01*
X36053Y34297D02*
X37153D01*
X34953D02*
X36053D01*
Y33097D02*
Y34297D01*
X43141Y2148D02*
X44191D01*
X43141D02*
Y3198D01*
Y1098D02*
Y2148D01*
X42091D02*
X43141D01*
X26397Y29303D02*
Y30503D01*
Y29303D02*
X27497D01*
X25297D02*
X26397D01*
Y28103D02*
Y29303D01*
X3749Y37501D02*
Y38801D01*
Y37501D02*
X5049D01*
X3749Y36201D02*
Y37501D01*
X2449D02*
X3749D01*
X27103Y20503D02*
Y21603D01*
Y20503D02*
X28303D01*
X25903D02*
X27103D01*
Y19403D02*
Y20503D01*
X3749Y22501D02*
Y23801D01*
Y22501D02*
X5049D01*
X2449D02*
X3749D01*
Y21201D02*
Y22501D01*
X3749Y12501D02*
Y13801D01*
Y12501D02*
X5049D01*
X2449D02*
X3749D01*
X40400Y25750D02*
X40950Y26300D01*
X39300Y24650D02*
X40650Y26000D01*
X27103Y25003D02*
X28450Y26350D01*
X28376Y40074D02*
X28400Y40050D01*
X31750Y39300D02*
Y39350D01*
X40600Y37750D02*
X43200Y35150D01*
D27*
X20550Y31450D02*
X20600Y31400D01*
Y16350D02*
X21000Y15950D01*
X23000Y29850D02*
X23550Y29300D01*
X20600Y16350D02*
Y31400D01*
D29*
X23550Y29303D02*
Y33100D01*
Y29300D02*
Y29303D01*
Y29200D02*
Y29300D01*
X20500Y35100D02*
X21550D01*
X21150Y33200D02*
X21200Y33250D01*
X21150Y33200D02*
X21850Y32500D01*
X22050Y17750D02*
X25381Y14419D01*
X25400Y14400D01*
X21550Y35100D02*
X23550Y33100D01*
X21850Y17950D02*
Y32500D01*
Y17950D02*
X22173Y17627D01*
D31*
X43159Y26892D02*
D03*
X43141Y12308D02*
D03*
D32*
X43159Y31972D02*
D03*
Y34512D02*
D03*
Y37052D02*
D03*
X43141Y4688D02*
D03*
Y7228D02*
D03*
Y2148D02*
D03*
X37458Y8400D02*
D03*
X32458Y8400D02*
D03*
D33*
X25454Y14492D02*
D03*
Y1992D02*
D03*
X3749Y32501D02*
D03*
X12954Y14492D02*
D03*
X26754Y8292D02*
D03*
X3749Y22501D02*
D03*
X3749Y17501D02*
D03*
X3749Y37501D02*
D03*
X3749Y7501D02*
D03*
Y2501D02*
D03*
X12954Y1992D02*
D03*
D34*
X3749Y27501D02*
D03*
Y42501D02*
D03*
X3749Y12501D02*
D03*
D35*
X32800Y33150D02*
D03*
X36600Y45350D02*
D03*
X31850Y39250D02*
D03*
X34350Y37750D02*
D03*
X39200Y33200D02*
D03*
X40950Y28000D02*
D03*
X32350Y24650D02*
D03*
X28350Y40100D02*
D03*
X28900Y28900D02*
D03*
X20500Y35100D02*
D03*
X21200Y33250D02*
D03*
X40250Y7150D02*
D03*
X40300Y10300D02*
D03*
X12447Y30197D02*
D03*
X18350Y31400D02*
D03*
X21000Y15950D02*
D03*
X20550Y31450D02*
D03*
X15050Y20800D02*
D03*
X19250Y23350D02*
D03*
X18600Y27000D02*
D03*
X14450Y27600D02*
D03*
X7650Y15000D02*
D03*
Y20000D02*
D03*
X7650Y25000D02*
D03*
X9350Y22750D02*
D03*
X16300Y24050D02*
D03*
X2650Y30100D02*
D03*
X2650Y25000D02*
D03*
Y20000D02*
D03*
Y14950D02*
D03*
Y35000D02*
D03*
X2650Y40000D02*
D03*
X23550Y29300D02*
D03*
X37400Y43050D02*
D03*
X38050Y45600D02*
D03*
X38500Y40050D02*
D03*
X35900Y40400D02*
D03*
X39900Y40100D02*
D03*
X30000Y41850D02*
D03*
X43050Y43050D02*
D03*
X39650Y36400D02*
D03*
X30700Y43050D02*
D03*
X30100Y12500D02*
D03*
X35200Y12500D02*
D03*
X36350Y17500D02*
D03*
X35150Y7350D02*
D03*
X35550Y1200D02*
D03*
X33900Y40000D02*
D03*
X33650Y34400D02*
D03*
X30750Y31750D02*
D03*
X2750Y45000D02*
D03*
X15000Y43200D02*
D03*
X14900Y38300D02*
D03*
X12300Y32350D02*
D03*
X22400Y36200D02*
D03*
X22050Y38800D02*
D03*
X25000Y42700D02*
D03*
X29800Y46600D02*
D03*
X44000Y46700D02*
D03*
X43750Y39800D02*
D03*
X36050Y46900D02*
D03*
X23700Y18400D02*
D03*
X29050Y21200D02*
D03*
X7450Y30050D02*
D03*
D36*
X40850Y44335D02*
D03*
Y43065D02*
D03*
Y41795D02*
D03*
X33650Y45605D02*
D03*
Y44335D02*
D03*
Y43065D02*
D03*
Y41795D02*
D03*
X40850Y45605D02*
D03*
M02*
