%FSLAX43Y43*%
%MOMM*%
G71*
G01*
G75*
%ADD10C,0.300*%
%ADD11R,1.600X1.800*%
%ADD12R,3.500X0.600*%
%ADD13R,1.600X0.300*%
%ADD14R,1.800X1.600*%
%ADD15R,4.000X3.000*%
%ADD16R,2.300X2.300*%
%ADD17R,0.900X0.950*%
%ADD18R,0.900X0.950*%
%ADD19R,0.850X1.300*%
%ADD20R,0.600X2.200*%
%ADD21R,0.600X2.200*%
%ADD22R,1.600X1.000*%
%ADD23R,5.400X5.500*%
%ADD24C,1.500*%
%ADD25C,0.800*%
%ADD26C,0.400*%
%ADD27C,0.600*%
%ADD28C,0.500*%
%ADD29C,1.000*%
%ADD30C,0.250*%
%ADD31R,1.500X1.500*%
%ADD32C,1.500*%
%ADD33C,2.000*%
%ADD34R,2.000X2.000*%
%ADD35C,1.100*%
%ADD36R,4.200X0.600*%
%ADD37R,1.803X2.003*%
%ADD38R,3.703X0.803*%
%ADD39R,1.803X0.503*%
%ADD40R,2.003X1.803*%
%ADD41R,4.203X3.203*%
%ADD42R,2.503X2.503*%
%ADD43R,1.103X1.153*%
%ADD44R,1.103X1.153*%
%ADD45R,1.053X1.503*%
%ADD46R,0.803X2.403*%
%ADD47R,0.803X2.403*%
%ADD48R,1.803X1.203*%
%ADD49R,5.603X5.703*%
%ADD50R,1.703X1.703*%
%ADD51C,1.703*%
%ADD52C,2.203*%
%ADD53R,2.203X2.203*%
%ADD54C,1.303*%
%ADD55R,4.403X0.803*%
D37*
X28459Y33886D02*
D03*
X31259Y33886D02*
D03*
X36053Y34297D02*
D03*
X38853Y34297D02*
D03*
X26397Y29303D02*
D03*
X23597Y29303D02*
D03*
D40*
X27103Y20503D02*
D03*
X27103Y23303D02*
D03*
D50*
X43159Y26892D02*
D03*
X43141Y12308D02*
D03*
D51*
X43159Y31972D02*
D03*
Y34512D02*
D03*
Y37052D02*
D03*
X43141Y4688D02*
D03*
Y7228D02*
D03*
Y2148D02*
D03*
X37458Y8400D02*
D03*
X32458Y8400D02*
D03*
D52*
X25454Y14492D02*
D03*
Y1992D02*
D03*
X3749Y32501D02*
D03*
X12954Y14492D02*
D03*
X26754Y8292D02*
D03*
X3749Y22501D02*
D03*
X3749Y17501D02*
D03*
X3749Y37501D02*
D03*
X3749Y7501D02*
D03*
Y2501D02*
D03*
X12954Y1992D02*
D03*
D53*
X3749Y27501D02*
D03*
Y42501D02*
D03*
X3749Y12501D02*
D03*
D54*
X32800Y33150D02*
D03*
X36600Y45350D02*
D03*
X31850Y39250D02*
D03*
X34350Y37750D02*
D03*
X39200Y33200D02*
D03*
X40950Y28000D02*
D03*
X32350Y24650D02*
D03*
X28350Y40100D02*
D03*
X28900Y28900D02*
D03*
X20500Y35100D02*
D03*
X21200Y33250D02*
D03*
X40250Y7150D02*
D03*
X40300Y10300D02*
D03*
X12447Y30197D02*
D03*
X18350Y31400D02*
D03*
X21000Y15950D02*
D03*
X20550Y31450D02*
D03*
X15050Y20800D02*
D03*
X19250Y23350D02*
D03*
X18600Y27000D02*
D03*
X14450Y27600D02*
D03*
X7650Y15000D02*
D03*
Y20000D02*
D03*
X7650Y25000D02*
D03*
X9350Y22750D02*
D03*
X16300Y24050D02*
D03*
X2650Y30100D02*
D03*
X2650Y25000D02*
D03*
Y20000D02*
D03*
Y14950D02*
D03*
Y35000D02*
D03*
X2650Y40000D02*
D03*
X23550Y29300D02*
D03*
X37400Y43050D02*
D03*
X38050Y45600D02*
D03*
X38500Y40050D02*
D03*
X35900Y40400D02*
D03*
X39900Y40100D02*
D03*
X30000Y41850D02*
D03*
X43050Y43050D02*
D03*
X39650Y36400D02*
D03*
X30700Y43050D02*
D03*
X30100Y12500D02*
D03*
X35200Y12500D02*
D03*
X36350Y17500D02*
D03*
X35150Y7350D02*
D03*
X35550Y1200D02*
D03*
X33900Y40000D02*
D03*
X33650Y34400D02*
D03*
X30750Y31750D02*
D03*
X2750Y45000D02*
D03*
X15000Y43200D02*
D03*
X14900Y38300D02*
D03*
X12300Y32350D02*
D03*
X22400Y36200D02*
D03*
X22050Y38800D02*
D03*
X25000Y42700D02*
D03*
X29800Y46600D02*
D03*
X44000Y46700D02*
D03*
X43750Y39800D02*
D03*
X36050Y46900D02*
D03*
X23700Y18400D02*
D03*
X29050Y21200D02*
D03*
X7450Y30050D02*
D03*
D55*
X40850Y44335D02*
D03*
Y43065D02*
D03*
Y41795D02*
D03*
X33650Y45605D02*
D03*
Y44335D02*
D03*
Y43065D02*
D03*
Y41795D02*
D03*
X40850Y45605D02*
D03*
M02*
