METRIC,LZ
M48
T1F00S00C0.600
T2F00S00C1.000
T3F00S00C1.300
%
T01
X003555Y00012
X003515Y000735
X004025Y000715
X00403Y00103
X00352Y00125
X003635Y00175
X003235Y002465
X00328Y003315
X003365Y00344
X003435Y003775
X00339Y004
X00359Y00404
X00385Y004005
X00399Y00401
X003965Y00364
X00392Y00332
X004095Y0028
X004375Y00398
X004305Y004305
X0044Y00467
X003805Y00456
X00366Y004535
X003605Y00469
X00374Y004305
X00307
X003Y004185
X002835Y00401
X003185Y003925
X003075Y003175
X00289Y00289
X002355Y00293
X002055Y003145
X001835Y00314
X00186Y0027
X001925Y002335
X00163Y002405
X001505Y00208
X001445Y00276
X0012447Y0030197
X00123Y003235
X000745Y003005
X000265Y00301
X000265Y0035
X000265Y004
X000275Y0045
X0015Y00432
X00149Y00383
X002205Y00388
X00224Y00362
X00205Y00351
X00212Y003325
X0025Y00427
X00298Y00466
X002905Y00212
X00237Y00184
X0021Y001595
X00301Y00125
X000765Y0015
Y002
X000935Y002275
X000765Y0025
X000265Y0025
Y002
Y001495
T02
X0032458Y00084
X0037458Y00084
X0043141Y0007228
Y0004688
Y0002148
Y0012308
X0043159Y0026892
Y0031972
Y0034512
Y0037052
T03
X0003749Y0002501
Y0007501
X0012954Y0001992
X0025454Y0001992
X0026754Y0008292
X0025454Y0014492
X0012954
X0003749Y0012501
Y0017501
X0003749Y0022501
Y0027501
Y0032501
Y0037501
Y0042501
M30
